<svg id="b534f90c-80a3-4f79-ad1c-079339253003" data-name="레이어 1" xmlns="http://www.w3.org/2000/svg" viewBox="0 0 548.25 548.25"><defs><style>.f96b04cd-4491-43bf-b314-9126abd0419d{fill:none;}</style></defs><path class="f96b04cd-4491-43bf-b314-9126abd0419d" d="M1344.18,711.5q0,135.15.07,270.31c0,2.81-.63,3.44-3.44,3.44q-270.69-.12-541.37,0c-2.81,0-3.44-.63-3.44-3.44q.12-270.69,0-541.37c0-2.81.63-3.44,3.44-3.44q270.69.12,541.37,0c2.81,0,3.44.63,3.44,3.44Q1344.12,576,1344.18,711.5Z" transform="translate(-796 -437)"/><path d="M1140.11,590.42a40.34,40.34,0,0,1-5.37-.82c-8.12-2-16.35-3.3-24.64-4.52-4.4-.64-10.95,2.06-12.94-5.24-.06-.24-.59-.42-.93-.5-2.74-.62-3.87-2.84-5.13-5-3.21-5.51-6.48-11-9.72-16.47-1.13-1.91-2.27-4-4.81-3.93s-2.24,2.76-3,4.38a11.37,11.37,0,0,0-1.13,2.65c-2.52,12.29-5.06,24.58-7.41,36.9-.31,1.66-.85,3.7.85,5.26a5.4,5.4,0,0,0,6,.66c3.57-1.72,7.21-1.93,11-1.9,1.61,0,3.67-.64,4.77.12a20.22,20.22,0,0,0,9.82,3.2c2.92.29,4.68,1.78,6.43,3.66a64.55,64.55,0,0,0,11.9,9.7c4.67,3.1,11.69,2.64,15.33-1.62a70.26,70.26,0,0,0,12.26-21.51C1144.22,592.9,1143.74,590.82,1140.11,590.42Z" transform="translate(-796 -437)"/></svg>