<svg id="bc950962-f53a-451f-8b80-90e60f4e680a" data-name="레이어 1" xmlns="http://www.w3.org/2000/svg" viewBox="0 0 548.25 548.25"><defs><style>.e1e37484-8687-485f-9b07-88428ec6962b{fill:none;}</style></defs><path class="e1e37484-8687-485f-9b07-88428ec6962b" d="M1148.18,685.5q0,135.15.07,270.31c0,2.81-.63,3.44-3.44,3.44q-270.69-.12-541.37,0c-2.81,0-3.44-.63-3.44-3.44q.12-270.69,0-541.37c0-2.81.63-3.44,3.44-3.44q270.69.12,541.37,0c2.81,0,3.44.63,3.44,3.44Q1148.12,550,1148.18,685.5Z" transform="translate(-600 -411)"/><path d="M814.9,577.55c-2.67-2.46-5-5.08-8.18-7.23-6.75-4.58-12.45-10.73-18-16.79-5.45-5.91-10.7-12.24-14.32-19.27-4.57-8.9-9.73-17.54-12.92-27.22-3.64-11-8.63-21.58-12.82-32.43-.53-1.39-1.14-1.3-2.08-1.29-1.45,0-1.07,1.21-1,1.92.31,2.66.69,5.31,1.18,7.94,1.31,7.14,2.75,14.27,4,21.42,1.21,6.81,2,13.69,3.45,20.46,2.27,10.94,5.12,21.7,9.87,31.93,2.45,5.3,3,11.38,6.24,16.44,5.44,8.64,14,14.05,21.62,20.35,2,1.65,4,5.18,7.8,3.88,2.91,1.15,4.33-1.6,6.5-2.49,5.61-2.3,8.79-6.18,8.3-12.53,0-.67-.37-1.55.45-2C817,579.52,815.88,578.45,814.9,577.55Z" transform="translate(-600 -411)"/><path d="M923.2,476.88c0-.68-.51-1.35-.67-2.05-.23-.94.47-2.58-1.49-2.21-1.47.28-.78,1.64-.76,2.47.2,6.89,0,13.73-2.29,20.34-1.27,3.73-2.74,7.41-3.7,11.21-2.06,8.06-2.5,16.47-5.23,24.41-1.25,3.65-3.29,7.31-4.07,10.65a39.2,39.2,0,0,1-5.87,13,62.38,62.38,0,0,1-14.89,15.92c-2.55,1.89-1.72,4.67-1.12,5,3.56,2.22,4.57,6.28,7.24,9s5.28,5.73,10.21,5.08c3.77-.5,6.87-3.46,10.93-2.51l-.25-2.67c3.67-3.25,7-6.5,7.76-11.39.84-5.76,3-11.33,2.71-17.24a53.7,53.7,0,0,1,1-10.65c1.44-8.71,1.58-17.52,2.68-26.26C927.12,504.9,923,491,923.2,476.88Z" transform="translate(-600 -411)"/></svg>