<svg id="ae5970df-9315-439a-a885-92d39a493d85" data-name="레이어 1" xmlns="http://www.w3.org/2000/svg" viewBox="0 0 548.25 548.25"><defs><style>.bdf9d622-8269-421f-a892-193f2fc2cdab{fill:none;}</style></defs><path class="bdf9d622-8269-421f-a892-193f2fc2cdab" d="M1000.75,969.18q-135.15,0-270.31.07c-2.81,0-3.44-.63-3.44-3.44q.12-270.69,0-541.37c0-2.81.63-3.44,3.44-3.44q270.69.12,541.37,0c2.81,0,3.44.63,3.44,3.44q-.12,270.69,0,541.37c0,2.81-.63,3.44-3.44,3.44Q1136.29,969.12,1000.75,969.18Z" transform="translate(-727 -421)"/><path d="M1018.19,669.13a135.46,135.46,0,0,1-16.34-4.83c-2.05-.7-4.16-1.42-6.26-2.1-7.11-2.28-14.46-4.64-22.07-3.59l-2,.27c-10.2,1.41-20.75,2.87-30.91,5.57-3.16.84-6.57,2.13-6.92,6.75-.53,6.91,4.18,19.42,13.07,24.07,8.58,4.49,15.89,7.18,23,8.46a49.19,49.19,0,0,0,8.71.73,67,67,0,0,0,7.84-.48,78.64,78.64,0,0,0,14.61-3.71c1.84-.59,3.74-1.21,5.62-1.75,3.74-1.09,6.86-3.19,9.87-5.22l.2-.13c.65-.44,1.3-.88,2-1.31,1.67-1.08,1.75-2.75,1.82-4a3.12,3.12,0,0,1,.52-2c2.49-2.65,2.73-5.65,2.64-8.19C1024.28,673.43,1022.06,669.92,1018.19,669.13Z" transform="translate(-727 -421)"/></svg>