<svg id="f14cc53b-0334-4718-a687-a26c0e10f0f3" data-name="bob-hair" xmlns="http://www.w3.org/2000/svg" viewBox="0 0 548.25 548.25"><defs><style>.b99bec05-6e0d-40e9-bfc9-61886d121e98{fill:none;}.a3603211-1000-4c09-b6fa-50572c7b27b2{fill:current;}</style></defs><path class="b99bec05-6e0d-40e9-bfc9-61886d121e98" d="M948.13,1075.18q-135.35,0-270.69.07c-2.81,0-3.44-.63-3.44-3.44q.12-270.69,0-541.37c0-2.81.63-3.44,3.44-3.44q270.69.12,541.37,0c2.81,0,3.44.63,3.44,3.44q-.12,270.69,0,541.37c0,2.81-.63,3.44-3.44,3.44Q1083.46,1075.12,948.13,1075.18Z" transform="translate(-674 -527)"/><path class="a3603211-1000-4c09-b6fa-50572c7b27b2" d="M934.09,784.42c-4,4.69-5.83,5-10,1.84A26.79,26.79,0,0,0,934.09,784.42Z" transform="translate(-674 -527)"/><path class="a3603211-1000-4c09-b6fa-50572c7b27b2" d="M932.21,782a9,9,0,0,1-7.48,1.78A5.7,5.7,0,0,1,932.21,782Z" transform="translate(-674 -527)"/></svg>