<svg id="b1086a96-88d5-452d-b45f-5815f49bfd39" data-name="bob-hair" xmlns="http://www.w3.org/2000/svg" viewBox="0 0 548.25 548.25"><defs><style>.f2cbe777-9f4d-4a26-a92b-e156a8f390e5{fill:none;}.b2deeb16-e530-4a0f-bc2f-95b6e736221f{fill:current;}</style></defs><path class="f2cbe777-9f4d-4a26-a92b-e156a8f390e5" d="M705.07,773.12q0-135.33-.07-270.68c0-2.81.63-3.44,3.44-3.44q270.69.12,541.37,0c2.81,0,3.44.63,3.44,3.44q-.12,270.69,0,541.37c0,2.81-.63,3.44-3.44,3.44q-270.69-.12-541.37,0c-2.81,0-3.44-.63-3.44-3.44Q705.14,908.47,705.07,773.12Z" transform="translate(-705 -499)"/><path class="b2deeb16-e530-4a0f-bc2f-95b6e736221f" d="M1003.61,721.44c-.18-2.72-1.14-3.74-3.6-4.55-4.27-1.4-8.56-.27-12.82-.44-1.66-.07-5.4-.57-5.4,3.19,0,4.06-1,8-.89,12.11.11,2.7.19,3.93,3.59,4.18,2.79.2,5.62.23,8,.5a24.06,24.06,0,0,1,4.46.05c2.81.58,4.29-1,4.66-3.23C1002.32,729.33,1003.89,725.6,1003.61,721.44Zm-3.1,6.88a1.59,1.59,0,0,1-2.15-.14,1.86,1.86,0,0,0-2.6-.66c-3.63,1.8-7.7.88-11.4,2.05-.8.26-1.79.45-1.85-1,0-1-.19-2.07,1.4-1.93.75.07,1.51-.08,2.25,0,3,.44,3.94-1.11,3.84-3.78,0-1,.09-2,0-3-.13-1.16.52-1.58,1.43-1.71,1.66-.25.64,1,.82,1.6,1.06,3.17,2.29,5.88,6.52,5.43C1000.81,725.06,1002.14,726,1000.51,728.32Z" transform="translate(-705 -499)"/><path class="b2deeb16-e530-4a0f-bc2f-95b6e736221f" d="M937.87,716.13c-4.24-1.39-8.24-3.66-12.34-2.91-1.61,0-2.61.1-3.59,0-3.66-.41-4.65,1.11-4.83,4.79-.25,5.33,2.83,9.75,3.08,14.8.1,1.9.72,2.26,2.39,2.16a110.6,110.6,0,0,1,11.28-.36c4.72.19,3.49-2.08,3.65-4.38.28-4-.87-8.11,1.42-11.91C939.25,717.77,939.45,716.64,937.87,716.13Zm-2,8.31a2.32,2.32,0,0,1-2.76.74c-.72-1.15-1.49-.61-2.5-.31-1.77.54-1.07,3.82-3.33,3.15a7.77,7.77,0,0,0-5.19,0c-1.78.61-.58-1.79-1.58-2.26,2.29-2.39.81-5.52,1.59-8.25.64-2.2,1.7-2.26,3.38-1.95.3.19.77.21.76.73,1,3.71,3.74,5.16,7.18,5C936.1,721.29,936.31,722.43,935.89,724.44Z" transform="translate(-705 -499)"/></svg>