<svg id="fdbff508-47e7-4695-bfe3-8913f53bb2e9" data-name="레이어 1" xmlns="http://www.w3.org/2000/svg" viewBox="0 0 548.25 548.25"><defs><style>.a2120d6f-78f3-49f2-a39c-f2f95d33923d{fill:none;}</style></defs><path class="a2120d6f-78f3-49f2-a39c-f2f95d33923d" d="M512.07,710.13q0-135.35-.07-270.69c0-2.81.63-3.44,3.44-3.44q270.69.12,541.37,0c2.81,0,3.44.63,3.44,3.44q-.12,270.69,0,541.37c0,2.81-.63,3.44-3.44,3.44q-270.69-.12-541.37,0c-2.81,0-3.44-.63-3.44-3.44Q512.14,845.47,512.07,710.13Z" transform="translate(-512 -436)"/><path d="M760.33,784.27c-2-7.32-6.51-13.09-11.26-18.78-2.54-3-5-5.51-9.44-3.81-1.25.48-2.89.11-4.39-.15-5-.83-9.18-3.5-13.63-5.52-13.5-6.13-24.68-15.55-35.35-25.6a173.64,173.64,0,0,1-14.45-15.85c-8.54-10.28-16.4-20.94-19.68-34.19-1.5-6.08-2.55-12.28-3.77-18.43-.93-4.68-3-9.36.34-14,.93-1.29.39-3.93-.93-3.43-2,.76-3.46-.68-5.32-.06-5,1.66-10.21,2.73-15.25,4.32-14.77,4.66-29.64,9.14-42.66,18-5.1,3.45-10.53,6.56-15.11,10.61-5.56,4.92-11.51,9.36-16.78,14.68a137,137,0,0,0-12.21,14c-9.18,12.17-12.69,26.89-17.54,40.84a79.4,79.4,0,0,0-4.1,27.35c0,.84.31,2.35-.4,2.4-2.89.17-1.86,2.26-1.78,3.54.55,8.4,1.54,16.74,2.66,25.1A83.88,83.88,0,0,0,533,841c.59.9.94,2,1.59,2.82,1,1.33,2.57,2.84,4,1.58,1.57-1.39-.52-2.5-1.44-3.47-3.71-3.89-4.43-7-2.61-11.14.8-1.82,2.74-2.39,3.88-3.71,5.17-6,11.37-10.94,17.24-16.16,3.9-3.48,8.49-6.93,13.37-8.42,9.54-2.91,19.6-3.74,29.2-4.08,2.77.3,5.1-.11,7.47.4,9.11,1.92,17.47,5.82,26,9.23,5.83,2.31,10.93,4.85,14.43,10.26,1.45,2.25,3.69,1.65,4.35-1.15a16.85,16.85,0,0,1,5.87-9c11.54-9.79,25.3-15.75,39.3-20.76C708,783,721,781.14,734,779.53c9.11-1.13,16.52,0,22.27,7.48a3,3,0,0,0,3.7.85C761.35,787.15,760.68,785.55,760.33,784.27Z" transform="translate(-512 -436)"/><path d="M1029.75,831c-2.39-.58-1.74-2-1.75-3.28-.08-8.58.51-17.26-2.34-25.55-1-2.77-.29-5.58-1.11-8.33-2-6.89-3.85-13.84-6-20.71A140,140,0,0,0,1007.85,748c-7.67-14-18.84-25.12-29-37-6-7-13.53-12.55-19.71-19.36-6.94-7.66-15.7-12.84-23.85-18.82-11.18-8.19-24-13.65-36.82-18.67-2.47-1-5-2.72-7.87-2.37s-4.57-.51-5.78-3.22c-.58,1.21-1,2.34-.26,3.06,2.63,2.49,2.37,5.92,2.53,8.89a54.31,54.31,0,0,1-5.26,25.75,177.46,177.46,0,0,1-18.89,31.58c-10,13.41-22.09,24.43-35.45,34-10,7.17-21.92,10.77-33.42,15-.84.3-2,.53-2.47-.12-3.47-5.29-3.34.52-3.68,1.47-.6,1.67,0,3.73-.34,5.53-.77,3.82-.09,7.84-3.11,11.36-2.09,2.44-1.86,6.4-1.17,9.59.56,2.56,3.75,2.1,5.72,3.1a7.32,7.32,0,0,0,3.91.68c7.82-.44,15.6.46,23.4.82,5,.23,10.11.45,14.93,1.64,10,2.47,20,5.19,29.75,8.55,7.87,2.7,15.8,5.77,21.17,12.8a2.37,2.37,0,0,0,3,.78c1.06-.56.71-1.72-.17-2.4-1.27-1-.1-1.83.22-2.45,2.15-4.27,5.81-7.05,9.59-9.83a48.65,48.65,0,0,1,17.28-8.47c6.41-1.59,12.73-1.31,19.27-.86a156.55,156.55,0,0,1,32.44,6.07c10.83,3.11,20.48,8.78,30.56,13.47a47.18,47.18,0,0,1,18.81,15.48c1.87,2.63,3.76,4.76,2.11,8.17-.93,1.93-1.06,4.18-2.73,5.84a1.81,1.81,0,0,0,.19,2.65,1.9,1.9,0,0,0,2.55-.53,45.75,45.75,0,0,1,13-11.37C1030.23,837.73,1031.29,831.34,1029.75,831Z" transform="translate(-512 -436)"/></svg>