<svg id="a6cd89b2-ecc9-4b9f-8f9f-24769ad07b26" data-name="레이어 1" xmlns="http://www.w3.org/2000/svg" viewBox="0 0 548.25 548.25"><defs><style>.f4e0461a-43d9-4b7a-a4c4-a70960a76986{fill:none;}</style></defs><path class="f4e0461a-43d9-4b7a-a4c4-a70960a76986" d="M1023.18,560.51q0,135.32.07,270.62c0,2.49-.38,3.11-3,3.11q-271-.12-542,0c-2.85,0-3.19-.77-3.19-3.32q.11-270.81,0-541.63c0-2.6.4-3.3,3.21-3.3q270.83.13,541.66,0c2.94,0,3.38.8,3.38,3.5Q1023.13,425,1023.18,560.51Z" transform="translate(-475 -286)"/><path d="M1005.15,590.68c-.29-2.19-2.24-2.26-3.93-2.08-5.87.65-11.65-.68-17.6-.25-10.79.79-21.69.23-32.54.22a10.91,10.91,0,0,1-2.91-.37c-4.51-1.25-9.14-2.16-13.69-3.13-5.9-1.26-11.79-2.68-17.51-4.42-11.65-3.54-23.14-7.69-34.55-12-10.31-3.86-20.74-7.39-31.09-11.1-9.86-3.53-19.54-7.81-30.05-8.41-6.28-.35-12.4-2.58-18.87-1.1-8.9,2-14,2.63-11.51,14.72a29.11,29.11,0,0,1-.18,13.36,62.5,62.5,0,0,1-10,20.2c-7.4,9.9-16.07,18.69-24.28,27.88-.64.72-1.94,3-2.93-.05-.21-.67-1.57-.72-1.91-.1-1.05,2-3.07,3.64-2.46,6.25.88,3.75.32,6.81-3.54,8.67a2.08,2.08,0,0,0-.66,3.24c4.21,4.06,9,7.67,15.19,6.08,3.91-1,6.58-.09,9.36,2.37,1.7,1.5,4.75,3.93,5.85,2.78,3-3.1,6-1,8.89-1.22,2.06-.14,4.5-1,6.06-.54a48.7,48.7,0,0,0,11.3,2.36c4.61.3,9.14,2.6,13.9-.24s5.54-2.3,8.77,2.65a33.82,33.82,0,0,0,4.28,5.45c3.21,3.19,6.73,6.5,11.71,5.15,4.39-1.18,6.3-4.78,7.23-9.2.27-1.31-.36-3.68,1-4,2.88-.61,5.67-3.13,8.94-.8a25.68,25.68,0,0,0,5.4,2.82c2.76,1.09,5.44,2,7.5-1.58,1.18-2.07,2.88-3.44,6-2,5.23,2.46,11.09,2.53,16.79,2.8,7,.34,13.35-3.07,20.11-4.27a3.55,3.55,0,0,0,3-3.31c.14-.92.71-2.9,2.31-2,2.35,1.3,4.91,1.21,7.36,1.78a41.31,41.31,0,0,0,12.44,1.1c6.31-.46,6.89-1.07,7.73-7.6.53-4.17,4.56-8.43,8.73-8.8,2.93-.26,5.93-.47,8.76-1,6.71-1.17,10.69-1.86,6.06-9.64a14.05,14.05,0,0,1-.81-1.81,15.28,15.28,0,0,1,9.64-.44,35.93,35.93,0,0,0,11.39.82c2.65-.14,4.7-1.08,4.1-4.23a13,13,0,0,0-3.83-7.63,58.89,58.89,0,0,0-8.88-6.86c4.72,0,9,1,11.38-1.62,2.77-3,5.91-4.22,9.52-5.14C1004.06,594,1005.42,592.74,1005.15,590.68Z" transform="translate(-475 -286)"/><path d="M710.13,633.93c-2.93-.72-4.61-3.06-6.9-4.6-6.66-4.47-10.87-11-15-17.5a156,156,0,0,1-9.11-16c-1.32-2.72-3.57-5.42-2.62-8.92,2.45-9.11,2.27-18.36,1.54-27.65-.39-4.92-2.63-7.46-7.26-9.15-3-1.1-6-.07-9.07-1-4.7-1.46-10.23-2.33-14.62-.58-8.07,3.21-16.32,6.15-24,10.5-3.7,2.1-6.48,5.72-10.59,6.86-8.35,2.34-16,6.34-24.16,9.24s-15.91,6-23.91,9c-8.2,3-16.5,5.73-24.41,9.49-4,1.9-7.93,4.17-12.14,5.37-5.54,1.56-11,3.49-16.77,4.33-8.51,1.24-16.9,2.74-25.52,1.11-1.12-.21-2.58-.59-3.42.75-.74,1.17-.26,2.23.29,3.42,2.08,4.49,6.18,6.17,10.38,7.71,1.34.49,4.07.66,4.06.89-.25,5.65,3.64.94,5.16,2.07.57.41,1.73-.08,2.57.1,1.95.41,3.57,1,1.94,3.57-1.88,2.94-3.58,6-5.28,9-.88,1.6-1.75,2.9,1.47,3.24,2.39.25,4.37.29,6.49-.85a29.37,29.37,0,0,1,6.54-2.8c2.33-.58,4.89-1.23,5.16,3,.13,2,.64,3.92,0,6-1.43,5.1-.3,6.7,5,6.37a118.49,118.49,0,0,1,13.46.06c8.57.41,17.09-.78,25.65-.93,4.85-.09,7.7,2.47,10.19,5.31,4.55,5.16,5.35,5.89,11.83,3.6,2.15-.77,4-.59,5.46.7,2,1.74,4.32,2.67,6.39,4.12,5.86,4.07,12.71,2.22,17.29-1.87,3.52-3.13,7-6.31,10.57-9.44s4.5-2.87,7.61.26,7.23,5.26,11.26,7.23c3.43,1.68,4.72,1.13,5.29-2.74.46-3.12,2.13-3.87,4.94-4.05s5.55,1.38,8.48,1c5.23-2.16,11.43,1.07,16.4-3.78,4.25-4.13,10.58-.76,15.71-3,2.37-1,5.21.61,7.84,1.06s5.46.9,8-.24C713.31,643.75,711.33,634.22,710.13,633.93Z" transform="translate(-475 -286)"/></svg>