<svg id="e34e62ea-bcbf-422a-928e-ba2c267cb023" data-name="bob-hair" xmlns="http://www.w3.org/2000/svg" viewBox="0 0 548.25 548.25"><defs><style>.b0168fa4-d267-4eaa-a4e0-51bbae25b4e3{fill:none;}</style></defs><path class="b0168fa4-d267-4eaa-a4e0-51bbae25b4e3" d="M1273.18,750.5q0,135.15.07,270.31c0,2.81-.63,3.44-3.44,3.44q-270.69-.12-541.37,0c-2.81,0-3.44-.63-3.44-3.44q.12-270.69,0-541.37c0-2.81.63-3.44,3.44-3.44q270.69.12,541.37,0c2.81,0,3.44.63,3.44,3.44Q1273.12,615,1273.18,750.5Z" transform="translate(-725 -476)"/><path d="M1048.19,738.47c-1.54-9.18-2.93-18.41-5.3-27.42-.5-1.91-.19-4.24-2.14-5.74-.71-.55-1.3-.73-1.92-.32-.8.53.08,1,.2,1.55.4,1.64.73,3.3,1.08,5A6.91,6.91,0,0,0,1038,717c0,.93,2.17.27,3.33.49a48.14,48.14,0,0,1,3,14.22h0c-3.08,1.93-6.15,3.66-10.09,3.11-1.2-.17-2.4-1.63-3.74-.33-1.33-1.21-2,.05-2.71.8-5.38,5.74-11.17,10.94-18.28,14.54-5.65,2.85-10.78,6.8-17.34,7.66-3.75.5-7.45,1.42-11.27,1.24-.68,0-1.55-.24-1.67.9-.1,1,.34,1.52,1.25,1.31,4.89-1.12,4,2.28,4,5,0,2.24-.13,4.49,0,6.73.21,3,.78,6,3.67,7.8.38,2.62,2.59,3.42,4.51,4.51a5.08,5.08,0,0,0,2.19,2.21h0c.29.28.57.57.85.85,1.93,2.35-.12,3.61-1.54,4.73-1.74,1.37-3.74,2.41-5.22,4.12-6.47,2.57-13,4.27-19.88,1.55-2.08-.82-4.2-1.53-6.31-2.29-.51-1.58-2.24-1.7-3.28-2.72-2.52-2.47-4-4.74-1.41-8.2,1.73-2.29,2.16-5.29,2.93-8,1.47-5.28,3.22-10.52,2.45-16.13-.06-.4.49-1.33-.59-1.1-.25.06-.24.91-.88.94a9.89,9.89,0,0,0-5.54-3.57c-7.72-2.27-13.13-7.92-19.18-12.58-3.79-2.93-7-6.59-10.52-9.92h0c-1.16-1.17-2.65-4-3.47-3.15-2.53,2.72-5.31,1-7.9,1.43-.32-1.09,0-2.83-1.92-2.52-1.71.28-1,1.85-.9,2.72.27,2.06-.83,3.84-.82,5.81,0,12.43-1.43,24.84-.69,37.27.34,5.72,1.4,11.39,2,17.09.65,6.66,2.59,13,4,19.52a58.29,58.29,0,0,0,4.45,13.3,2,2,0,0,0,2,1.39c1.49-.05,1-1.19,1-1.92,0-2.6,1.91-2.55,3.56-2.55,7.36,0,14.72-.39,22.11-.33,17.67.15,35.32,1.47,53,1,9.33-.25,18.61.63,27.91.76,1,0,2.54.49,2.77-.4.78-3.12,3.54-2.38,5.21-2.42,3.42-.07,4.7-1.65,5.5-4.63,3-11.11,3.71-22.43,3.71-33.85q0-21,0-41.95A17.52,17.52,0,0,0,1048.19,738.47Z" transform="translate(-725 -476)"/></svg>