<svg id="aaa77f98-96c8-4d2e-846c-094caf9192ea" data-name="bob-hair" xmlns="http://www.w3.org/2000/svg" viewBox="0 0 548.25 548.25"><defs><style>.bcb5b168-436f-4c5d-92fe-db93df44c96f{fill:none;}.fa5bdb62-0c60-42fa-962d-12e28449e68b{fill:current;}</style></defs><path class="bcb5b168-436f-4c5d-92fe-db93df44c96f" d="M822.16,356.07q135.35,0,270.68-.07c2.81,0,3.44.63,3.44,3.44q-.1,270.69,0,541.37c0,2.81-.63,3.44-3.44,3.44q-270.67-.12-541.37,0c-2.81,0-3.44-.63-3.44-3.44q.12-270.69,0-541.37c0-2.81.63-3.44,3.44-3.44Q686.82,356.14,822.16,356.07Z" transform="translate(-548.03 -356)"/><path class="bcb5b168-436f-4c5d-92fe-db93df44c96f" d="M727.86,608.76c.19-4.46,0-9,4.55-11.85a3.32,3.32,0,0,0,1.08-2.56c-.12-2.4,2.61-2.87,3-2.65,3,1.52,2.46-.83,2.81-3.26a42.79,42.79,0,0,1,3.37,12.94c.4,2.94-.06,6,.12,9,.12,1.95-.69,2.52-2.35,2.13-4.31-1-8.88-1.1-12.68-3.79Z" transform="translate(-548.03 -356)"/><path class="fa5bdb62-0c60-42fa-962d-12e28449e68b" d="M727.8,608.69s0,0,0,0l.05,0Z" transform="translate(-548.03 -356)"/><path class="fa5bdb62-0c60-42fa-962d-12e28449e68b" d="M906.75,614.19c-.77-4.52-1.44-9.1-3.18-13.35-3.31-8.05-9.11-14.65-13.29-22.25-3.34-6.07-5.66-12.79-6-19.09-.52-9-1.07-17.83-2.77-26.73a54.54,54.54,0,0,0-9.66-22c-5.62-7.74-14.53-11.7-22.9-16-6.17-3.16-12.91-4.91-19.43-7.16-4.75-1.64-9.5-3.73-14.55-4.05a87.16,87.16,0,0,0-34.64,4.63c-7,2.44-12.48,8.36-20.43,8.61a13.36,13.36,0,0,0-3.89.67c-12.18,4.22-19.22,13.21-23.69,24.76-2.57,6.63-1.47,13.73-2.65,20.58-1.45,8.39-.22,17.16,1.63,25.68,1.52,7,.62,14-4.71,19.09-3.48,3.33-6.9,6.74-10.47,10-5,4.58-9.78,9.4-12.7,15.72-3.19,6.93-5.61,14.11-6.19,21.73-.28,3.68-.74,7.52.3,11.14,2.56,8.93,14.82,17.24,24.06,16.52.66-.05,1.57.34,1.74-.81.13-.87-.32-1.17-1.06-1.61-1.64-1-1.54-2.88-1.9-4.5a1.5,1.5,0,0,1,.68-1.61c.82-.62,1.05.25,1.43.58,5.39,4.51,11.89,6.11,18.6,7.21,1.63.27,1.51-.75,1.81-2,1.36-5.55,5.07-7.62,9-4.64,2.63,2,5.65,3.34,8.1,5.51,1.8,1.59,3.1,1.36,4.77-.2s1.55-4.56,3.54-4.89c2.38-.39,2.57,2.95,4.29,4.19,4.47,3.24,8.19,2.59,9.67-2.06a41.89,41.89,0,0,0,1-5.73h0c1.59-3.55,3-7.16,2.94-11.14a5,5,0,0,0-.32-1.24c-2.74,1.8-4.52-2.32-7.15-1.16a3.24,3.24,0,0,0-3-1.32h0c-.62-.15-1.38-.06-1.64-.88-1.3-2.35-3.56-3.45-5.85-4.52-3.11-4.16-7.66-6.77-11.2-10.46a9.6,9.6,0,0,0-3.78-4.54c-1.63-3.15-1.57-6.69-2.32-10-1.56-7,1.17-14.93-4.31-21.15-.13-.14.17-.63.21-1,1.3-10.31,4.67-20,8.47-29.7-.21,4.93.85,9.67,1.61,14.45.26,1.65,1.22,2.88,1.72,4.36a1.69,1.69,0,0,0,2.15,1.05c1.07-.28.76-1.24.64-1.83-.38-1.94.52-3.65.86-5.42,1.7-8.88,5.69-16.84,10.19-24.63,0,7,.1,13.95,3.13,20.48.53,1.14-.14,2.65,2.07,2.51,2-.12,2.54-1,2.54-2.81,0-7.19.09-14.37.59-21.57.37-5.34,1.31-10.54,2.19-15.82-.36,7,1.14,13.75,1.6,20.61a60.74,60.74,0,0,0,3,16.42c.66,1.89,1.56,2.53,3.36,3.26,5.11,2.05,10.83,1,15.83,3.53,1.15.57,2.39-.13,2.65-1.78a21.37,21.37,0,0,0,.77-3.9c-.07-6.19-.48-12.44.79-18.54.68-3.25.4-6.57.92-10.37,4.78,9.41,5.11,19,5.68,28.6.32,5.34.06,5.3,5.23,5.33,3.64,0,6.12-1.51,7.46-4.92,2.46-6.26,2-13,3.45-19.88a55,55,0,0,1,4.62,13.07c1.86,7.24,7,12.65,10,19.22.37.79.85.74,1.44.71.91,0,.87-.77.79-1.35-.33-2.28-.76-4.54-1.09-6.82a30.17,30.17,0,0,1,.44-12.77,64.83,64.83,0,0,1,6.45,30.82c-.12,5.71-1.32,11.44-1.33,17.25,0,5.13-1.34,9.83-5.48,13.37a8.66,8.66,0,0,0-1.94,3c-1.58,3.43-3.69,6.07-7.71,6.88a4.44,4.44,0,0,0-3.48,2.8l-.09,0a12.25,12.25,0,0,1-6.45,5.06c-7,2.51-13.69,6.13-21.24,7-.81.1-.7.87-.77,1.46l.05,0a29.08,29.08,0,0,0,.79,9.44c.51,1.82,1.37,4.52,3.61,3.79,2.44-.79,4.17.4,6.2.69,1.69.24,3.82,1.1,4.74-.69s1.79-1,2.73-.51c1.59.87,3.12,1.85,4.63,2.85,4,2.6,4.74,2.4,7.28-1.57.93-1.46,1.66-2.73,4-.95s5.19,2.45,7.93,3.3c1.51.47,3.22.06,3-2.11-.28-2.67,1.68-4,3.32-4.92,1.43-.76,2.76,1.36,4.14,2.19a4,4,0,0,1,1.06,1c1.21,1.61,2.41,1.76,4.42,1a19.27,19.27,0,0,0,9.3-7.73c.82,2.87-1,4.29-1.92,6.1-.44.87-1.83,1.94,0,3,6.49,3.83,12.77,1.33,18.94-.75,3.82-1.29,4.81-5.5,7.25-8.22a31.43,31.43,0,0,0,8.22-21A77.05,77.05,0,0,0,906.75,614.19Zm-164.92-5.74c-.1,2.39-1.1,3-3.31,2.6a39.23,39.23,0,0,1-7.6-1.79c-1-.39-2-1.17-3.07-.43a1,1,0,0,1,0-.1l-.25-.12a2.69,2.69,0,0,0,.47,0c1.13-1.74.64-4,1.54-5.7,2.29-4.5,4.14-9.5,10.15-10.69A47.22,47.22,0,0,1,741.83,608.45ZM866,539.29l.06.32a.93.93,0,0,0-.29-.05C865.83,539.47,865.89,539.38,866,539.29Zm-3,48.44c-2.11-2.34-2.89-4.7-1.16-7.66,1.38-2.37.77-5.47,3.09-8.37C866.48,577.64,865.38,582.69,863,587.73Zm2,22.95v-9.44C867,604.3,866.69,607.06,865,610.68Zm14.74-37.77-.1-.15.16,0Z" transform="translate(-548.03 -356)"/></svg>