<svg id="ffc9831c-ed01-4d08-8cce-4eacc6d9e393" data-name="bob-hair" xmlns="http://www.w3.org/2000/svg" viewBox="0 0 548.25 548.25"><defs><style>.ba1b12e1-9abf-4c5d-8590-e9f6c734a7b5{fill:none;}.aab4ad13-ba03-4ce3-af70-ee34dc54c076{fill:current;}</style></defs><path class="ba1b12e1-9abf-4c5d-8590-e9f6c734a7b5" d="M756.07,651.12q0-135.33-.07-270.68c0-2.81.63-3.44,3.44-3.44q270.69.12,541.37,0c2.81,0,3.44.63,3.44,3.44q-.12,270.69,0,541.37c0,2.81-.63,3.44-3.44,3.44q-270.69-.12-541.37,0c-2.81,0-3.44-.63-3.44-3.44Q756.14,786.47,756.07,651.12Z" transform="translate(-756 -377)"/><path class="aab4ad13-ba03-4ce3-af70-ee34dc54c076" d="M1086.1,577.52c-1.19-8.54-4.09-16.59-6.48-24.8-2-6.86-5.43-11.83-12.39-15.05-5.11-2.36-9.15-7.07-13.58-10.84-2.58-2.2-4.72-4.87-8.24-5.83-6.77-1.84-13.19-5.17-20.32-5.34-10.12-.25-20.25-.32-30.36,0-7.12.24-14.21.91-20.71,4.68a119.51,119.51,0,0,1-12.7,6.08c-3.91,1.68-7.94,4-10.22,8.21-1.45,2.64-1.14,4.51,1.06,5.37h0l.81.76c-2.86,2.14-6.23,3.73-8,7.06-2.05,3.8-4,7.63-6.07,11.44-8,14.94-10.73,30.75-7.28,47.39,1,4.77,2.49,9.53,6.86,12.67,1.41,1,3.12,2.83,4.4,2.11,1.79-1-1.57-2.12-.88-3.7a1,1,0,0,0-.61-1.2h0c.19-3.12,2-4.12,4.89-3.71.19,0,.42-.21.63-.33,1.23.51,2.57.92,2.28-1.16-.89-6.21-.17-12.43-.39-18.64,0-.69-.37-1.84.36-2,3-.74,4-3.71,6.37-5.78,0,2.16.09,3.77,0,5.36-.21,3,.8,4,3.65,2.4a109.59,109.59,0,0,0,20.31-14.09c3.79-3.41,7.74-6.77,9.21-12.11,1.21,3.55,0,7,1.34,10.38a56.29,56.29,0,0,0,8.57,14.26,20.11,20.11,0,0,0,10.37,6.67c1.12.35,2.83,1,3.52-.92,3-8.11,8.78-14.83,11.59-23.47,4.27,8.74,9.59,16.07,18.11,20.55.87.46,1.53,1.4,2.63.83s.65-1.78.67-2.7c.07-2.76,0-5.52,0-8.27,4.76,9.05,12,15.08,20.27,20.25,1.77,1.12,3.38.54,5.42-.13a53.37,53.37,0,0,1-5,14.07,3.62,3.62,0,0,0-.37,3.18c.64,1.15,1.88.46,3,.23,1.48-.32,3-.79,4.27,1,1.88,2.68,3.64,2.22,5.39-.66a53.72,53.72,0,0,0,7.44-21A85.21,85.21,0,0,0,1086.1,577.52ZM940.42,617.4a5.3,5.3,0,0,0,1-.85A1.7,1.7,0,0,1,940.42,617.4Zm102.44-26,.06,0a2.66,2.66,0,0,0,.33-.21v.46C1043.11,591.52,1043,591.44,1042.86,591.36Z" transform="translate(-756 -377)"/></svg>