<svg id="minkee-default-hair" xmlns="http://www.w3.org/2000/svg" viewBox="0 0 548.25 548.25"><defs><style>.cls-1{fill:none;}.cls-2{fill:current;}</style></defs><path class="cls-1" d="M449.07,400.75q0-135.15-.07-270.31c0-2.81.63-3.44,3.44-3.44q270.69.12,541.37,0c2.81,0,3.44.63,3.44,3.44q-.12,270.69,0,541.37c0,2.81-.63,3.44-3.44,3.44q-270.69-.12-541.37,0c-2.81,0-3.44-.63-3.44-3.44Q449.14,536.29,449.07,400.75Z" transform="translate(-449 -127)"/><path class="cls-2" d="M836.61,304.13c.7-6.45.31-12.93.18-19.39a6.1,6.1,0,0,0-1.79-3.61c-4.85-5.09-9.8-10.1-14.79-15.06-4.28-4.26-9.49-7.46-13.37-12.21-3.05-3.72-7.32-5.32-12.12-5.49a121.68,121.68,0,0,0-28,2.35c-11.5,2.28-20.64,8.14-25.48,19.28-.73,1.69-1.23.85-2,.59-6.88-2.3-13.58-5.48-21-5.68-10-.26-20-.36-29.94.06-5.22.22-10.66,0-15.62,2.24-3.62,1.63-7.12,3.5-10.7,5.24-2,1-4,2.48-6,2.66-1.89.15-2.06-2.82-3.67-3.87a102.38,102.38,0,0,0-15.2-7.72,29.84,29.84,0,0,0-6.46-2.49c-7.3-1.36-14.64-.32-21.95-.67A5.32,5.32,0,0,0,605,261.9c-8.51,7.18-17.56,13.67-26.19,20.71-5.06,4.13-8.82,8.53-9.18,15.18-.78,14,.24,27.52,7.08,40.36,4.12,7.74,5.16,16.6,1.6,25.05a46.53,46.53,0,0,0-3.46,19.09,4.61,4.61,0,0,0,.5,2.12c4.34,8.71,11.13,15.28,18.39,21.5,2.12,1.81,4.87,3.49,5,6.67.19,4.44.52,9-.82,13.3-.45,1.46-1.38,3.28.08,4a4.72,4.72,0,0,0,5.55-.5c.46-.42.9-.87,1.38-1.27,4.82-4,9.87-4.2,15-.67a5.47,5.47,0,0,0,5,.4c4.35-1.6,8.59-2.64,13.26-1.37a6.48,6.48,0,0,0,4.74-.42c6.75-3.64,13.26-7.71,18.72-13.07,2.89-2.84,5.48-6.05,8.46-8.87,1.91-1.8,1.24-3.32-.76-4.29a27.36,27.36,0,0,1-6-4.17c-6.56-5.67-12.34-12-16.17-19.92-.89.53-1.41,1.11-1.32,1.88.49,4.13-2.16,4.42-5.06,4a53.06,53.06,0,0,1-7.49-1.91c-1.24-.39-3.13-1.06-2.24-2.72,1.08-2-.23-5.79,3.58-5.9,2.29-.07,3.14-.32,1.25-2.29-.85-.87.13-2.32-1.11-3h0c.2-3.13,2-4.13,4.89-3.72.19,0,.42-.21.63-.33h0c1.22.51,2.57.93,2.27-1.16-.88-6.21-.16-12.43-.39-18.64,0-.69-.37-1.84.37-2,3-.74,4-3.7,6.36-5.78,0,2.16.09,3.76,0,5.36-.21,3,.79,4,3.64,2.4a109.37,109.37,0,0,0,20.28-14.09c3.79-3.41,7.74-6.77,9.2-12.11,1.21,3.55,0,7,1.34,10.38A56.26,56.26,0,0,0,692,340.36,20,20,0,0,0,702.35,347c1.13.35,2.83,1,3.51-.92,3-8.11,8.78-14.83,11.58-23.47,4.27,8.74,9.58,16.07,18.09,20.55.87.46,1.53,1.4,2.62.83s.66-1.77.68-2.7c.06-2.76,0-5.51,0-8.27,4.75,9.05,12,15.08,20.24,20.25,1.78,1.12,3.38.54,5.59-.19a66.53,66.53,0,0,1-5.17,14.13,3.59,3.59,0,0,0-.37,3.18c.63,1.15,1.87.49,3,.22s2.88-.89,3.75.48a10.06,10.06,0,0,1,1.13,8.93c-.79,2-3.46,3.31-6.22,3.14a10.39,10.39,0,0,1-4-.71c-1.2-.58-2.09-.57-2.87.9a31.7,31.7,0,0,1-10.57,11.8c-2.44,1.59-2.1,3.26-.78,4.87,1.66,2,3,4.22,4.6,6.26s3.18,3.86,5.76,4.55a12.42,12.42,0,0,1,7.77,5.89,2.67,2.67,0,0,0,2.33,1.6c3,0,6.29.61,8.63-1.36,3.59-3,5.53-1.13,7.85,1.5,3.12,3.54,6.43,6.87,11,8.78a14.57,14.57,0,0,0,6.95.74c2.19-.15.85-2.24,1.49-3.25.3-.47,1-.71,1.47-1,5.45-3.58,11.11-6.88,16.3-10.81,7.53-5.7,11.74-13.49,11.92-23A36.65,36.65,0,0,0,827,379c-4.46-15.27-2.31-30.46,1.45-45.25C831,323.87,835.51,314.47,836.61,304.13ZM634.18,366.44a6.27,6.27,0,0,0,.69-.63A2.75,2.75,0,0,1,634.18,366.44ZM644.05,336l.08,0,0,0S644.07,336,644.05,336Zm7.39,3.84,0,0,0,0-.07,0S651.44,339.82,651.44,339.79Z" transform="translate(-449 -127)"/></svg>