<svg id="aeb434d8-e93b-4f2b-8add-e4afca5b216d" data-name="bob-hair"
    xmlns="http://www.w3.org/2000/svg" viewBox="0 0 548.25 548.25">
    <defs>
        <style>.b5fb617e-2438-4f8e-82f7-ed49406538b2{fill:none;}</style>
    </defs>
    <path class="b5fb617e-2438-4f8e-82f7-ed49406538b2"
        d="M1361.18,763.5q0,135.15.07,270.31c0,2.81-.63,3.44-3.44,3.44q-270.69-.12-541.37,0c-2.81,0-3.44-.63-3.44-3.44q.12-270.69,0-541.37c0-2.81.63-3.44,3.44-3.44q270.69.12,541.37,0c2.81,0,3.44.63,3.44,3.44Q1361.12,628,1361.18,763.5Z"
        transform="translate(-813 -489)" />
    <path
        d="M1154.56,799.5c-2-8-6.22-15.06-10-22.27-5-9.46-11.14-18.32-15.48-28.15-.79-1.79-2.07-2.92-3.77-2.51-2.43.57-2.64.81-2.45-1.51.26-3.36-.56-5-4.23-3.84.49,1.85,1.29,4-.56,5.5-6.7,5.46-12.24,12.31-20.35,16.09-5.74,2.67-10.82,6.75-17.38,7.67-3.76.53-7.46,1.42-11.29,1.28-.84,0-1.83-.21-1.74,1.21,0,.83.55,1.15,1.2,1,4.81-1.12,4.12,2.13,4,5,0,2.25-.12,4.5,0,6.74.19,3.06.78,6,3.67,7.83.38,2.62,2.59,3.42,4.51,4.51a5.08,5.08,0,0,0,2.19,2.21h0l.85.85c1.93,2.35-.12,3.61-1.54,4.73-1.74,1.37-3.74,2.41-5.22,4.12-6.47,2.57-13,4.27-19.88,1.55-2.08-.82-4.21-1.53-6.31-2.29a2.73,2.73,0,0,0-1.48-1.47c-2.32-1.08-3.71-3.18-4.82-5.24a6.5,6.5,0,0,1,.27-2.25,6.06,6.06,0,0,0,1.54-2.41c.12-.66.9-1.17.7-2,2.57-2.86,1.1-6.67,2.34-9.84,1.71-3.84,1.2-8.08,2.13-12.06.08-.33.34-1.13-.42-1.1-.46,0-.24,1.12-1,1.1-.37-.79-1.13-1.07-1.8-1.55-3.64-2.61-8.51-2.86-11.84-5.77-6.57-5.74-14.42-10-19.68-17.26-.61-.84-1.34-1.8-2.65-1.67a24.65,24.65,0,0,1-.75-3.75c-.09-1.59-.23-3.36-2.25-2.81s-.22,1.89-.07,2.9a7.25,7.25,0,0,1-.09,1.46h0l-1.38-.08a18.75,18.75,0,0,0,0-2.25c-.1-.85.58-2.19-1.18-2.14-1.44,0-.92,1.14-1.05,1.9s.38,1.7-.74,1.78c-3.08.23-3.28,2.52-3.82,4.8-2.67,11.36-7.49,21.77-13.51,31.74a73.9,73.9,0,0,0-8.55,19c-1.14,4.25-1.32,8.68-2.14,12.94-1.19,6.23.51,11.46,3.12,16.76.42.85.82,1.15,1.64,1,1.1-.21.72-1.13.74-1.78,0-1.78,0-3.57,0-5.35,1.77,1.49,2,3.58,3.47,5.1A106.24,106.24,0,0,0,1002.2,842c4.06,2.92,4.78,2.58,5.41-2.75,5.52,3.72,11,7.26,16.27,11a19.38,19.38,0,0,0,8.72,3.18c1.54.23,2.42,0,2.49-2.05.15-4.4,3.32-6.31,7.63-4.9a57.86,57.86,0,0,1,15.86,7.57c3.86,2.76,6.3,2.23,9.09-1.4s4.86-4.21,8.92-2.07a53,53,0,0,1,6.43,4,13.89,13.89,0,0,0,15.26.54c1.15-.67,2.32-1.63,4-.25,2.08,1.73,4.43.91,6.38-.55a76.71,76.71,0,0,0,11.44-9.86c2-2.29,3.64-2.43,5.34.61,1.83,3.26,4.24,3.28,6.48.25,2.8-3.79,5.29-7.82,8.14-11.57,3.24-4.24,5-9.18,6.85-14.41.82,1.52,1.38,2.58,2,3.63,1.45,2.6,2.56,2.63,4.38.37a14.43,14.43,0,0,0,1.81-3.51C1158,813,1156.29,806.21,1154.56,799.5Zm-26.12,44.9h.15l-.08.1ZM1150.79,821l.27.09-.16.21C1150.87,821.17,1150.83,821.07,1150.79,821Z"
        transform="translate(-813 -489)" />
</svg>