<svg id="heihachi-hair" xmlns="http://www.w3.org/2000/svg" viewBox="0 0 548.25 548.25"><defs><style>.cls-1{fill:none;}.cls-2{fill:current;}</style></defs><path class="cls-1" d="M1184.18,584.12q0,135.35.07,270.69c0,2.81-.63,3.44-3.44,3.44q-270.69-.12-541.37,0c-2.81,0-3.44-.63-3.44-3.44q.12-270.69,0-541.37c0-2.81.63-3.44,3.44-3.44q270.69.12,541.37,0c2.81,0,3.44.63,3.44,3.44Q1184.12,448.79,1184.18,584.12Z" transform="translate(-636 -310)"/><path class="cls-2" d="M835,497.61c1.92-3.21.34-5.88.54-8.76.06-.9-.25-1.39-1.26-1.32-.83.06-1,.51-1,1.22s0,1.48,0,2.49c-1-.59-1.9-1-2.67-1.53-9.51-6.64-16.79-15.73-25.49-23.26a139.84,139.84,0,0,1-12.39-11.95c-3.57-3.95-7.72-7.35-10.84-11.77A60.44,60.44,0,0,1,777,435.1c-.61-1.22-1.42-2.69-3-2.11s-.78,2.23-.62,3.27c.36,2.36,1.23,4.64,1.7,7,.76,3.75,2.85,7.24,2.47,12-3.8-4.08-8.46-5.73-11.64-9.57-3.66-4.44-8.37-8-11.92-12.55-4.23-5.37-9.39-9.72-14.1-14.55a3.1,3.1,0,0,0-3.46-.57c-1.31.45-.9,2.22-.51,2.93,3.3,5.93,4,12.78,7,18.86,5.21,10.37,9.38,21.22,14.38,31.71,4.79,10,8.41,20.62,16.2,29.65-3.91-1.43-7.22-2.76-10.62-3.82-.87-.27-2.34-.7-3,.5s.36,1.82,1.11,2.5c.36.33.7.7,1.06,1,5.87,5.62,12,11,17.54,16.93,3.76,4,7.28,8.08,11.94,11.06,3.18,2,6.25,4.23,9.38,6.34,2.78,1.88,5.05,4.63,8.46,5.4a36.68,36.68,0,0,1,10.25,4.28c1.62.93,3.48,3.27,5.16,1.86,2.05-1.72,3.64-.58,5.31-.21,1.24.27,2.72.83,3.48.07.95-.93.3-2.37-.11-3.73-1.13-3.75-3.76-7.12-3.1-11.42a5.15,5.15,0,0,1,1.7.55,2.47,2.47,0,0,0,3.06.43c1.23-.93-.26-2-.42-3-.05-.33-.58-.66-.53-.93.86-5.58,2.08-11.1,2.78-16.73.22-1.8.83-3.24,0-5.07C835.56,504.2,833.16,500.66,835,497.61Z" transform="translate(-636 -310)"/><path class="cls-2" d="M1042.32,455.87c-.65-1.12-2-.58-3.06-.5a76.78,76.78,0,0,0-21,5c-8.48,3.28-17.36,4.47-26.91,4.79,5.64-5.42,6.55-12.26,7.6-19,.14-.87,1-2.54-1.19-2.85a2.53,2.53,0,0,0-3.16,2.17,18.11,18.11,0,0,1-6,10.15c-3,2.66-6.14,5.24-9.28,7.78-5,4-9.62,8.5-15,11.74-4.83,2.88-10,5.24-14.58,8.6-.54.4-1.54.89-2,.67-4.14-2.28-4.85,1.73-4.72,3.46a21.54,21.54,0,0,1-4.33,14.65c-.32.45-.25,1.18-.43,1.75-1.34,4.19-1.35,4.16,2.69,4.23,1.07,0,2.21-.33,3.42.44-1.49,2.73-2.15,5.77-3.92,8.42-1.42,2.14-1,4.94-.28,7.12.44,1.23,2.95.4,4.52.44a15.08,15.08,0,0,0,3.09-.54c-.67,3.39-1.47,6.64-1.89,9.94-.17,1.29-.92,3.27.66,4s2.79-1.13,4.26-1.61c.15,0,.13-.47.27-.63,1.83-2,10-4,11.87-2.37s3.22.84,4.56-.1c7.86-5.5,14.71-12.27,22.25-18.21,6.62-5.22,13-10.65,20.09-15.32a37.13,37.13,0,0,0,8.08-7,1.93,1.93,0,0,0,.5-2c-.27-.72-1.09-.59-1.61-.45-5.88,1.52-11.86.33-17.77.72,0-.28-.07-.55-.1-.83,3.51-2.07,7.15-3.93,10.48-6.25,5-3.47,9.85-7.1,14.53-10.95,5.79-4.77,12.29-8.73,17.14-14.61C1041.73,457.79,1043,457.09,1042.32,455.87Zm-49.39.61a2.11,2.11,0,0,0-.22-.17l.44-.36C993.08,456.13,993,456.3,992.93,456.48ZM1013.05,494a.83.83,0,0,0,0-.15,1.34,1.34,0,0,0-.12-.3h.73Zm24.13-35.18a1.82,1.82,0,0,0-.07-.25,1.08,1.08,0,0,0-.11-.18l.78,0Z" transform="translate(-636 -310)"/></svg>