<svg id="e25668d4-34b1-4982-9446-3e92b0b3c22d" data-name="bob-hair" xmlns="http://www.w3.org/2000/svg" viewBox="0 0 548.25 548.25"><defs><style>.f7d5df73-da31-498c-ba4d-762c2f663e6b{fill:none;}.eb816e85-b47e-4aee-b753-e97a6ce4aa9a{fill:current;}</style></defs><path class="f7d5df73-da31-498c-ba4d-762c2f663e6b" d="M666.07,753.75q0-135.15-.07-270.31c0-2.81.63-3.44,3.44-3.44q270.69.12,541.37,0c2.81,0,3.44.63,3.44,3.44q-.12,270.69,0,541.37c0,2.81-.63,3.44-3.44,3.44q-270.69-.12-541.37,0c-2.81,0-3.44-.63-3.44-3.44Q666.14,889.27,666.07,753.75Z" transform="translate(-666 -480)"/><path class="eb816e85-b47e-4aee-b753-e97a6ce4aa9a" d="M978.23,718.75a31.51,31.51,0,0,1,3.88-9.21c2.45-4.18,2.23-9.71,1.77-14.74-.12-1.41-1-2.88-.6-4.3,2.55-9.43,2.16-19,2.25-28.67.06-7.16-3.14-13.15-6.95-18.63a88.91,88.91,0,0,0-20.76-21.07c-7.07-5.17-14.24-10-23.07-11.43-1.93-.31-4.46-1.22-5.91.83-1,1.39-1.49,1.26-2.87.78a26.92,26.92,0,0,0-10-1.74c-8.64.37-17.07,1.5-25.22,4.91-12.21,5.11-22.64,12.1-29.58,23.71-3.06,5.13-4,10.62-3.9,16.41,0,.63,0,1.35.64,1.61,1.54.62,1.1,1.47.67,2.67a85.26,85.26,0,0,0-5,26c-.2,6.36,0,12.74,0,19.11,0,4.46,1.89,8.5,2.62,12.79a3,3,0,0,0,.87,1.41c1.88-.76,1.49.47,1.84,1.64,2.11,7,.91,14.12,1.36,21.17.35,5.35,0,10.74.09,16.11.09,4.82,2.41,9,4,13.43a2.32,2.32,0,0,0,2.6,1.71c1.64-.41.82-1.87.81-2.8,0-2.33-1.26-4.84.53-6.88a5,5,0,0,0,1-3.77c0-8.11-.41-16.06-2.83-24A125,125,0,0,1,862,713c-.33-3-2.22-5.78-1-9,2.27-6,4.07-12.27,6.89-18.1s4.21-12.48,8.26-18.46c-.49,3.48-.29,6.44-.49,9.4-.4,5.77-3,11.44-1.14,17.35.2.63-.37,1.62.76,1.78s2.06.25,2.67-.81a19.19,19.19,0,0,0,1.65-3.22,152.13,152.13,0,0,1,10.78-22.79c1.47-2.64,2.06-6.24,5.82-7.85-.31,8.07,2.25,15.14,4.57,22.26,1,3.07,2.58,5.88,6,6.37a42.77,42.77,0,0,0,9,0c2.93-.21,4.69-1.28,4.61-5-.16-7.74-.75-15.43-1.64-23.39,2.86,3.2,4.3,6.84,6.09,10.31,2.71,5.21,4.68,10.88,8.75,15.31,1.2,1.31,2.54,3.23,4.46,2.49s.84-2.88.92-4.41a15.65,15.65,0,0,0-.33-3.65A106.05,106.05,0,0,0,934,665.39c5.18,5.56,11,10.34,16.26,15.78a179.24,179.24,0,0,1,17.31,20.43c1.16,1.64,1.26,4.34,4.21,4.54.43,0,1.36,1.73,1,2.91-.89,2.87-.26,6.05-1,8.68-1.81,6.88,1.27,13.71-.62,20.45a1,1,0,0,0,.87,1.35c1.11.29,1.15,1.3,1.54,2.24,2.1,5.09,2.44,10.76,5.38,15.58,2,3.27,2.11,6.65-.46,9.83a2.68,2.68,0,0,0-.45,1.71c.06.73-.61,1.84.8,2.09a1.89,1.89,0,0,0,2.11-1.22c2.07-4.51,3-8.87.57-13.81-1.81-3.72-4.08-7.4-4.32-11.8l-1.43-8.07a32.78,32.78,0,0,1,.19-6C976.57,726.31,977.4,722.52,978.23,718.75Z" transform="translate(-666 -480)"/></svg>