<svg id="aca48f52-616b-4939-80f3-098628a397d5" data-name="bob-hair" xmlns="http://www.w3.org/2000/svg" viewBox="0 0 548.25 548.25"><defs><style>.e2d1fcc9-0bf8-424c-99dc-99402d05fb23{fill:none;}.fe48ed5b-c553-4a93-854a-61947e7ab894{fill:current;}</style></defs><path class="e2d1fcc9-0bf8-424c-99dc-99402d05fb23" d="M1001.13,825.18q-135.35,0-270.69.07c-2.81,0-3.44-.63-3.44-3.44q.12-270.69,0-541.37c0-2.81.63-3.44,3.44-3.44q270.69.12,541.37,0c2.81,0,3.44.63,3.44,3.44q-.12,270.69,0,541.37c0,2.81-.63,3.44-3.44,3.44Q1136.46,825.12,1001.13,825.18Z" transform="translate(-727 -277)"/><path class="fe48ed5b-c553-4a93-854a-61947e7ab894" d="M961.38,561c-9.64-1.58-15.47-9.22-23.12-13.91-5-3.09-8.59-8.06-12.11-12.85-.34-.47-.49-1.72-1.32-1.31-4.88,2.45-9.57.31-14.32-.42-.73.33-2.34-1.88-2.26.9.26,9.15-1.18,18.25-.8,27.42.08,1.92.9,3.49,2.23,3.89,4.1,1.22,7.79,3.71,12.33,3.64,9.57-.12,19.14,0,28.71,0,3.35,0,6.6-1.44,10.07-.09,1.74.68,1.37-1.09,1.28-2.14h0C963,564.22,964.69,561.56,961.38,561Z" transform="translate(-727 -277)"/><path class="fe48ed5b-c553-4a93-854a-61947e7ab894" d="M1055.83,561.57a52.22,52.22,0,0,1-2.35-15.1c.15-17.34.35-34.69-.13-52a123.17,123.17,0,0,0-1.1-15.38c-.5-3.21-1.2-6.51-.48-10.12s1.57-7.55.67-11.64a70.3,70.3,0,0,0-5.52-16.33c-4-8-7.38-16.61-16.35-21.24-6.46-3.33-12-8.11-19.73-9.16-6.75-.93-13.43-2.47-20.29-2.45-2.94,0-5.8,1.18-8.79.72q-.06-.32-.09-.63c.82-2.61.68-2.86-1.77-3.1-8.3-.82-16.45-1.08-24.85.47-7.52,1.39-14.41,3.16-20.68,7.69-6.1,4.4-11.7,9-14.38,16.33a128.09,128.09,0,0,1-5.76,13.55A80,80,0,0,0,906,476.63c-.43,11.4.64,22.71,1.67,34,.25,2.81.58,5.6.63,8.43,0,.6,0,1.26.86,1.33s1.14-.22,1.44-1.15c.8-2.45,1.93-4.8,2.93-7.19,3.21.85,4-.54,3.81-3.61-.25-3.94-.05-7.92,0-11.88,3.74,0,7.47-.09,11.21-.11,4.24,0,9-3.9,9.75-8.09.61-3.2,1.2-6.4,1.83-9.77a26.76,26.76,0,0,1,1.21,7.64c.05,4.41.85,5,5.25,5,3.91-.06,7.59-2,11.58-1.49,3.41.41,4-1.7,3.09-4.12a10.1,10.1,0,0,1-.41-5.83c2.13-8.81,2.68-18,6.77-27.31-.51,9.33.35,17.72.54,26.14.09,3.71,1.1,7.2,1.58,10.81.19,1.39,1.08,2.1,2.31,1.71s.84-1.78.53-2.53c-1.3-3.25-.23-6.5-.27-9.75-.09,3.58,1.28,7,1.18,10.55-.08,3.14.6,5.29,4.67,4.91a45.91,45.91,0,0,1,12.53.47c1.54.28,6.49,2.59,4.64-3.23,0-.14.36-.38.4-.6,1.39-7.46,2.58-14.94,2.46-22.56,0-2,0-4,0-6a46.15,46.15,0,0,1,6.65,20.77c.16,1.94,1.34,3.83-.43,6.19-1.28,1.72,1.13,4.14,2.94,5.32,1.4.91,2.86.47,4.24-1.27,2.66-3.34,3.54-7.1,3.78-11.09.21-3.61,0-7.25,0-11.88,6.34,14,11.16,27.3,11.26,41.85,0,.82-.62,2.09,1.11,2.21a1.76,1.76,0,0,0,2.16-1.4c.31-1,.93-2,1.17-3a85.89,85.89,0,0,0,2.65-18.35,3.19,3.19,0,0,1,.39,1.44c.29,1.09-.89,2.69.75,3.23s2.68-1.07,3.16-2.09c1.72-3.66,4.77-6.86,4.33-11.34a2.27,2.27,0,0,1,1.46-2.32h0c.46.32,1.69-.58,1.33,0-1.29,2.18.15,4,.21,6,.28,9.51,0,18.89-4.43,27.68-.94,1.9-1.85,4.52,2.24,3.83,1.18-.2,1.47.71,1.75,1.49.68,1.81,1.63,3.62,1.82,5.49.71,6.76.13,10.32-8.4,10.05-4.46-.14-6.42,2.26-8.48,5-.81,1.09-1.71,2.06-2.57,3.09-4.11,4.94-10.61,6.31-15.35,10.64-5.82,5.32-13.95,6.44-21.66,7.59-1.57.23-3.13-.07-2.48,2.31-.33,2.29.18,4.31,3,3.63,7.53-1.83,15.09-.66,22.41.35,8.09,1.12,16,3.12,24.31,2.85,3.34-.11,5.87-.06,5-4.47a4.94,4.94,0,0,0,1.3.55c2.74.05,5.48.06,8.23.07C1057.38,566.85,1057.34,566.8,1055.83,561.57Z" transform="translate(-727 -277)"/><path class="fe48ed5b-c553-4a93-854a-61947e7ab894" d="M1042.81,499.33v-3.51A3.54,3.54,0,0,0,1042.81,499.33Z" transform="translate(-727 -277)"/><path class="fe48ed5b-c553-4a93-854a-61947e7ab894" d="M1012.52,494.57c1.63.45,2.62.66,3.69,0C1015.17,494,1014.23,494.17,1012.52,494.57Z" transform="translate(-727 -277)"/></svg>