<svg id="b04bd0ca-5dcf-4f16-bcb0-10bb17c768c7" data-name="bob-hair" xmlns="http://www.w3.org/2000/svg" viewBox="0 0 548.25 548.25"><defs><style>.af7cf792-fda4-4ac3-ac8a-309e5512299d{fill:none;}.f605add1-3f27-4dd8-aa3b-5ab242094258{fill:#6d6d6d;}.fd710358-c879-4e60-900f-e030ef6d235f{fill:#979797;}</style></defs><path class="af7cf792-fda4-4ac3-ac8a-309e5512299d" d="M908.75,1032.18q-135.15,0-270.31.07c-2.81,0-3.44-.63-3.44-3.44q.12-270.69,0-541.37c0-2.81.63-3.44,3.44-3.44q270.69.12,541.37,0c2.81,0,3.44.63,3.44,3.44q-.12,270.69,0,541.37c0,2.81-.63,3.44-3.44,3.44Q1044.29,1032.12,908.75,1032.18Z" transform="translate(-635 -484)"/><path d="M1012.05,927.3c-1.72-1.94-2.66-4.48-5.73-5.5-5.94-2-11.68-4.66-17.79-6.1-8.2-1.94-15.56-6.24-23.74-8.15a63.22,63.22,0,0,1-14.95-5.24c-1.09-.57-2.17-1-2.54-2.47a24.09,24.09,0,0,1,.23-12.75c.26-.87.19-2.11,2-2.53,11.13-2.51,21.13-7.82,30.78-13.64,4.56-2.75,7.84-6.9,6.68-13a80.06,80.06,0,0,0-6.58-20.22c-2.38-4.93-5.63-9.43-8.1-14.25a77.41,77.41,0,0,0-7.91-12.16,70.55,70.55,0,0,0-18.4-16.2c-3-1.91-5.71-2.6-8.88-.52a50.42,50.42,0,0,1-5.55,2.74c0-2.68-.12-4.91,0-7.12a8.21,8.21,0,0,0-2.37-6.44c-9.71-10-21.44-9.62-32.42-3-1.2.73-1.75,1.91.27,2.06,2.22.15.9,1.39.6,1.81-1.21,1.72-2.88,3.15-3.89,5-1.44,2.59-3.55,3.26-6.22,3-8-.68-14.7-4-19.52-10.54a3.81,3.81,0,0,0-3.1-1.78c-6.72-.92-13.43-.1-20.12-.4-1.58-.07-2.73.92-4,1.77-4.8,3.34-4.56,8.63-3.33,12.84s-1.07,4.68-3,6.57c-3.64,3.54-7.91,6.3-9.89,11.64a101.22,101.22,0,0,0-4.84,19.15,268.87,268.87,0,0,0-3.61,40.83,24.11,24.11,0,0,0,3.12,11.64c2.51,4.83,6.42,7.26,12,8,4.67.63,9.34.24,14,.73-.09,3.47-2.14,5.14-5,6.14-1.74.6-3.43,1.39-5.17,2a117,117,0,0,0-25.87,13.1c-4.34,2.81-8.31,6.53-13.45,7.71-3.76.85-6.88,2.82-10.29,4.28-1.12.48-2.74,1-2.55,2.35.25,1.8,2.05.88,3.13.93,9.06.47,18.09-.33,27.13-.67a39.37,39.37,0,0,0,4.74-.05,140.45,140.45,0,0,1,25.23-2.22,19.72,19.72,0,0,0,3.35-.1c9.19-1.47,18.51-.82,27.73-1a152.2,152.2,0,0,1,19.1.94c9.47,1,19.07.69,28.62.94a8.61,8.61,0,0,1,1.83.19c4.9,1.22,10,.94,14.79.32a102.16,102.16,0,0,1,19.3-.31c4.73.28,9.54,1.31,14.24,1.14,7.54-.27,15.1-.36,22.64-.52,5.28-.12,10.57.42,15.85.63C1011.58,928.84,1013.16,928.56,1012.05,927.3Zm-85.49-41.79c-2,2.1-4.87,2.51-7.59,2.86-1.85.23-3.77-.17-5.6.1-2.25.32-3.57-.9-4.64-2.41-1.41-2,1.12-2.63,1.61-4-2.67-.39-2.55-.33-3.53,1.81a6.85,6.85,0,0,1-2.34,2.77c-4,2.49-8.19,4-13,3.27-2-.3-1.92-1.7-1.82-3.08.32-4.64,1.34-9.26.52-14a1.84,1.84,0,0,1,.18-1.73c.06-3.85,3.65-3.58,5.46-3.47,3.3.2,7.39-2.39,10,1.91.26.43,1.12-.22,1.5-.71.9-1.19,2.14-1.93,3.49-1.3s.47,2,.53,3c.1,1.69.12,3.22,2.27,1.35.1-.44.52-.48.82-.69,2.06-.27,4.14-.48,6.19-.82,3.55-.6,6,.37,6.56,4.3C927.73,878.39,929.69,882.18,926.56,885.51Z" transform="translate(-635 -484)"/><path class="f605add1-3f27-4dd8-aa3b-5ab242094258" d="M914.43,871.25l-.82.69c-1.72,0-1.54-1.12-1.29-2.63C913.07,870.11,913.11,871.55,914.43,871.25Z" transform="translate(-635 -484)"/><path class="fd710358-c879-4e60-900f-e030ef6d235f" d="M890.36,871.14l-.18,1.73c-1.11-.63-1.26-1.63-1.26-2.88Z" transform="translate(-635 -484)"/></svg>