<svg id="a3c4efc8-9296-4b67-9b19-8c65a54aa7f1" data-name="bob-hair" xmlns="http://www.w3.org/2000/svg" viewBox="0 0 548.25 548.25"><defs><style>.bb1b7819-bf69-45cb-8436-3aa44f8eb1fb{fill:none;}</style></defs><path class="bb1b7819-bf69-45cb-8436-3aa44f8eb1fb" d="M1070.75,913.18q-135.15,0-270.31.07c-2.81,0-3.44-.63-3.44-3.44q.12-270.69,0-541.37c0-2.81.63-3.44,3.44-3.44q270.69.12,541.37,0c2.81,0,3.44.63,3.44,3.44q-.12,270.69,0,541.37c0,2.81-.63,3.44-3.44,3.44Q1206.29,913.12,1070.75,913.18Z" transform="translate(-797 -365)"/><path d="M1014.34,697.55A137.76,137.76,0,0,1,1012,725a105.52,105.52,0,0,1-2.55,10.53c-.46,1.52-1.12,3-3.73,2s-5.75-.66-8.51-1.78c-.84-.33-1.75-.11-1.67,1.23,0,.89-.07,1.64,1.27,1.74,4.13.29,8.15,1.57,12.34,1.46,8.62-.23,16.77,2.53,25.1,4.08,1.18.22,2.44.07,3.66.63-1.78,8.07-2.62,16.33-4.8,24.35-.35,1.28-1.26,4.07.82,4.44,2.6.47,1.26-2.44,1.55-3.62a179.41,179.41,0,0,0,4.07-20.21c.29-2.28,2.25-2.64,2.74-4.29,1.49.56,3.39.31,4.29,2.09.34,3.94-1.48,7.47-2.44,11.11a144.39,144.39,0,0,1-5,14.39,81.86,81.86,0,0,1-23.12,5.75c-4.17.37-8.64-1.08-12.76-2.4-3.57-1.14-7.21-1.82-10.83-2.62-8.79-2-12.39-7.74-12.06-16.69.16-4.32-.43-8.82-.5-13.25-.11-7.49,2.09-14.71,2.73-22.09.62-7.17,2.5-14.11,3.27-21.23a46.37,46.37,0,0,1,4-14.15,6.32,6.32,0,0,1,3.33-2.77c5.79-2.55,11.54-5.2,17.3-7.81a4.5,4.5,0,0,1,1.45,2.92c.51,5.27,1.86,10.38,3,15.54A3.72,3.72,0,0,1,1014.34,697.55Z" transform="translate(-797 -365)"/><path d="M1032.92,799.44a8.31,8.31,0,0,1-2.06.64c-10.24.5-20.33-.29-30.11-3.64,0,.72-.09,1.44-.13,2.16,5.76,1.79,11.72,2.6,17.62,3.76,4.32.86,8.77-.62,13.11.78-3.78.16-7.3,1.52-11.23,1.16-6.81-.63-13.28-3-20.12-3.36h0c-1.8,2.39.52,2.67,1.75,2.85,8.27,1.21,16.49,3,25,2.34C1033.73,805.55,1033.08,804.06,1032.92,799.44Z" transform="translate(-797 -365)"/><path d="M1068.05,669.84h0l-3.61-1.21c1,3.5.74,6.85.34,10.27-.65,5.48-3.49,10.16-5.16,15.26-.78,2.38-.32,3.33,1.69,4.11a54.44,54.44,0,0,0,6.41-17.8C1068.39,676.9,1068,673.38,1068.05,669.84Z" transform="translate(-797 -365)"/><path d="M1032.22,698.92c-1.58-9.22-2.78-18.52-5.2-27.58,2-.29,3.13,0,3,2.6-.48,8.75,2.44,16.79,5.59,24.86C1034.57,699.3,1033.38,699,1032.22,698.92Z" transform="translate(-797 -365)"/><path d="M1014,781.41c1.81-.1,3.1-.1,2.09,2.34a48,48,0,0,0-2.54,8.14c-.29,1.31-.78,1.87-1.84,1.35-.8-.4-2.39-.45-2-2.09.68-2.65,1.56-5.25,2-7.93C1012.07,781.64,1012.65,781.1,1014,781.41Z" transform="translate(-797 -365)"/><path d="M1040.46,773.05c4.58-5.17,7.34-11,6.77-18.11-.15-1.88.48-3.82.76-5.73,3.81,3,1.23,6.49.66,9.79-.76,4.33-.82,8.93-4.43,12.24A5.23,5.23,0,0,1,1040.46,773.05Z" transform="translate(-797 -365)"/><path d="M1025.37,671.34c1.26,6,2.58,12,3.74,18a22.6,22.6,0,0,1,0,4.43c-2.79-6.45-5.13-13-5.19-20.17A2.11,2.11,0,0,1,1025.37,671.34Z" transform="translate(-797 -365)"/><path d="M1064.46,696.77a52.43,52.43,0,0,0,5.24-24.69c3.37,2.09,1.55,5.41,1.22,7.81-.66,4.9-2.35,9.68-3.83,14.44C1066.76,695.4,1066.37,697.09,1064.46,696.77Z" transform="translate(-797 -365)"/><path d="M1074.76,803.84c-.86,0-2.2.47-2.08-1.23.09-1.39,1.24-1.09,2-.94,9,1.85,17.75-.06,26.5-1.66a106.79,106.79,0,0,0,10.4-3h0c0-.71-.06-1.43-.1-2.14-2.5-.58-4.91.36-7.26.82-6.54,1.29-13.31,1.08-19.72,3.3a24.71,24.71,0,0,1-14.08.42c1,2.93,1.25,6.81,5.64,6.6,6.18-.29,12.53.18,18.3-2.85A157.89,157.89,0,0,1,1074.76,803.84Z" transform="translate(-797 -365)"/><path d="M1138.57,728.47c-4.17-12-10.26-23-16-34.22-5.1-9.92-14-15.15-25.15-16.18-2.25,1.59-2.62,4.31-3.15,6.55-1,4-3.31,7.8-2.3,12.18,2,4.06,2.23,8.58,3.11,12.92.46,2.23.25,4.94,1.47,6.59,2.67,3.61,5.41,7.14,7.75,11,.91,1.51,2,1.58,3.53.62a15.72,15.72,0,0,1,7-2.63c.72-.06,1.85-.51,2,1,.06,1-.44,1.09-1.29,1.31-7.48,2-12.25,7.6-17.19,12.94-1.47,1.58-4.06,3.44-.31,5.5.34.19.52.81.63,1.26,1.29,5.38,4.71,10,5.39,15.6.15,1.23.91,1.79,1.6,1.25,1.5-1.19,3.28-.65,4.9-1.25,8.19-3,15.4-7.89,22.93-12.1,3.33-1.87,6.24-4.84,7.1-8.74C1141.6,737.36,1140.11,732.89,1138.57,728.47Zm-32.45-20c-1.95.19-3.36,2.37-5.4,1.55-.78-.32-.5-1.58-.21-2.38,1.3-3.57.61-5.35-3.08-7.09a1.31,1.31,0,0,1-.8-1.75c.75-2.17-.18-5.66,2.46-6.24,2.47-.54,1.67,2.93,2.7,4.43a31,31,0,0,1,2.26,4.92c.54,1.15.72,2.63,2.62,2.43,1.38-.15,1.07,1,1.17,2C1108.22,707.61,1107.13,708.34,1106.12,708.44Zm12.93-9.18c0,4.68-2.14,6.9-5.84,6.5-.69-.07-1.57.17-1.63-1,0-.66.12-1.21.91-1.33a1.17,1.17,0,0,0,.34-.16c1.79-.87,4.06-2.15,3.5-4.06s-3.2-1.81-5.21-1.73c-2.23.08-2.27-.95-1.16-2.45.36-.5,1-.84,1.24-1.37.41-1.07,1.84-2.23.8-3.28-.83-.84-2-.59-3,.73a2.19,2.19,0,0,1-3.25-.18c-.74-1.13.46-2.07,1.32-2.74a6.47,6.47,0,0,1,6.31-.93c1.73.63,2,2.61,1.94,4.41-.07,1.18,0,2.32,1.32,2.77C1119.21,695.4,1119.2,697.47,1119.05,699.26Z" transform="translate(-797 -365)"/><path d="M1100.24,789.29c.21.93-.4,1.26-1,1.05-.93-.33-1.44,1.69-2.72.06-3.08-3.93-4.83-8.55-7.07-12.9-.92-1.79.76-2.82,2.17-3.34,1.13-.42,2.26-.91,2.87,1.34a63,63,0,0,0,5.13,12.93A7.35,7.35,0,0,0,1100.24,789.29Z" transform="translate(-797 -365)"/><path d="M1066.63,714.5c0,2,0,4,0,5.94s-.83,4.34,2.68,4.29c.94,0,1.47,1.52,1.44,2.37-.06,1.21-1.32,1.14-2.31,1.13-1.24,0-2.49,0-3.73,0s-2.17-.89-1.74-1.9c2.44-5.63-.37-11.41.67-17,.21-1.14-.78-2.72.67-3.34s1.78,1.27,2.68,1.82c3.4,2.11,3.54,6.22,6.28,9,1.26-2.89,2.52-5.88,3.91-8.8.38-.81.45-1.9,1.64-2.25s2.3-1.92,3.66-1.25.7,2.28.56,3.37c-.6,4.64,1.64,9.08.84,13.72-.07.41.19,1.21.44,1.28,1,.25,2.18.31,1.66,1.74-.46,1.24-1.73.51-2.63.69-3.83.76-3.33.83-2.71-3,.55-3.44-1.11-7-.17-11.55-2.81,3.24-3.38,6.5-4.76,9.32-.43.89-.44,1.94-1.59,2.21-1.36.31-2.08-.73-2.7-1.61-1.43-2.06-2.73-4.21-4.09-6.33Z" transform="translate(-797 -365)"/></svg>