<svg id="a25412fd-aa89-4700-afd0-2824139379ed" data-name="레이어 1" xmlns="http://www.w3.org/2000/svg" viewBox="0 0 548.25 548.25"><defs><style>.e0da9bad-c969-446d-8938-c48c0cd23f89{fill:none;}</style></defs><path class="e0da9bad-c969-446d-8938-c48c0cd23f89" d="M658.07,587.13q0-135.35-.07-270.69c0-2.81.63-3.44,3.44-3.44q270.69.12,541.37,0c2.81,0,3.44.63,3.44,3.44q-.12,270.69,0,541.37c0,2.81-.63,3.44-3.44,3.44q-270.69-.12-541.37,0c-2.81,0-3.44-.63-3.44-3.44Q658.14,722.47,658.07,587.13Z" transform="translate(-658 -313)"/><path d="M992.05,662.12a57.75,57.75,0,0,0-7.84-12.93c-3-3.67-6.17-7.21-9.07-11-3.82-5-8.41-9.71-15.27-9.8A92.17,92.17,0,0,1,932.24,624c-1.06-.35-2.93-1.05-3.9.78-3.64,6.87-9.6,9.91-17.08,11.18-7.3,1.25-14.57-1.2-19-7.37-3.75-5.21-4-5.22-10-2.29-5.62,2.72-11.3,5.39-17.49,6.52-7.77,1.43-18.3,10.51-18,20.69.21,7.68-1.84,15.13-3.74,22.51-.71,2.74-2.75,5.26.69,7.57a1,1,0,0,1,.26.69,32.45,32.45,0,0,1,3.57.51c5.41,1.3,10.67,3.55,16.45,2.75a63.13,63.13,0,0,1,7.37-.92c.63-1.68,1.07-3.48,1.73-5.3,1.77,2.59,1.5,5,1.42,7.37,0,.85.7,2.17-.72,2.48h-.05c1.85.47-.25,2.06,3.44,2.64a56.3,56.3,0,0,0,9,.94c7.13-.08,13.64,2.43,20.44,3.62,2.27.4,4.28-.18,6.39-.42,5.18-.6,10.33-2.36,15.42.68,1,.59,2.51.19,3.73-.88a10.86,10.86,0,0,1,6.63-3.06c-.43,3.07.87,4.07,4.3,4.16a14.32,14.32,0,0,0,6.36-1.06,3.16,3.16,0,0,0,1.53-.85,12.17,12.17,0,0,0,3-3c-6-11.75-1.83-23.64-.62-36.43,4.41,4.9,8.81,8.75,10.95,14.34.43,1.11.84,2.2,1.32,3.28,2.3-.26,4.92-.24,5.33-.56,5.3-4.1,11.89-5.61,17.65-8.77.36-.2,2.14-1.29,4.06-2.37C992.44,662.94,992.23,662.53,992.05,662.12Z" transform="translate(-658 -313)"/><path d="M965.09,739.29a51.79,51.79,0,0,1-7.73-25.74,4.45,4.45,0,0,1,.41-2.45c-2,.78-6.2.07-7.91,1.57-4.54,4-10,4.14-15.64,3.28-.89-.13-1.11-.5-1.52-1.2-.88-1.45.54-1.76,1.07-2.25s1.62-.62,1.32-1.8c-.33-1.33-1.4-.66-2.15-.75-2.35-.3-4.22.33-5.3,2.72a7.43,7.43,0,0,1-4.39,4.18h0c-1.39,1-3.41-.19-4.66,1.32h0C909.81,714,900.53,714.88,891,716c-3.61.42-6.53.44-9.36.57-1.3,0-2.61,0-3.91.07a2.78,2.78,0,0,0-1.85.49,34,34,0,0,0-3.43.75c.79.52.65,1.27.08,2.65-2.14,5.19-4,10.5-6.38,15.57-1.22,2.6-1.18,5.38-2,8-.62,2,2.29,2.89,5.62,2.32a68.46,68.46,0,0,1,21.52-.18c6.35.94,12.71,1.9,19.1,2.57,7.42.78,14.48-2.45,21.88-2.22,3.68.12,7.34-1.32,10.86-1.19,5.86.21,11.39-3.32,17.37-1.12,1.84.68,3.51-.65,4.84-2C966.34,741.19,965.68,740.26,965.09,739.29Z" transform="translate(-658 -313)"/></svg>