<svg id="f116d393-9b69-4e9b-8066-70180079d7db" data-name="레이어 1" xmlns="http://www.w3.org/2000/svg" viewBox="0 0 548.25 548.25"><defs><style>.a2f2ee15-e856-4ce0-9880-540040872fe9{fill:none;}</style></defs><path class="a2f2ee15-e856-4ce0-9880-540040872fe9" d="M438.07,686.12q0-135.33-.07-270.68c0-2.81.63-3.44,3.44-3.44q270.69.12,541.37,0c2.81,0,3.44.63,3.44,3.44q-.12,270.69,0,541.37c0,2.81-.63,3.44-3.44,3.44q-270.69-.12-541.37,0c-2.81,0-3.44-.63-3.44-3.44Q438.14,821.47,438.07,686.12Z" transform="translate(-438 -412)"/><path d="M785.9,781c-4-9.81-10-18.54-14.5-28.12-4.28-9.23-11.64-16.41-17.28-24.74-.61-.89-1.52-2-2.45-2.16-7.4-1.44-14.72-3.48-22.44-1.82-2.12.45-4.74,1.12-6.75-.72a86,86,0,0,0-11.63-8.77c-1.35-.87-1.13-3.1-3.28-3.1-2.42,0-4.29.68-5.26,3.07-1.13,2.81.87,4.4,2.59,5.78.68.56,2,.51,1.56,1.77-.92,2.4-.17,5-.8,7.27-3,10.88-4.33,22.2-8.87,32.68-2,4.72-3.73,9.59-5.75,14.82-1.9-3.37-4.06-5.9-5.22-9.17-4.32-12.11-5.52-25.1-10.68-37-1.63-3.76-3.82-8-.92-12.34.51-.77-.34-1.6-.83-2.31.15-.5-.11-.72-.56-.8-.34-.71.41-1.64-.75-2.25-5.5-2.86-10.81-1.63-14.28,3.6-3.81,5.73-8.31,10.54-14.67,13.69-4.22,2.08-9,2.69-13,5.2-2.09,1.32-6.35,1.66-3.19,5.92.3.41.06,1.22,0,1.85-.17,6.6-1.79,13-2.46,19.6-1.27,12.34-5.85,24.07-8.28,36.22-.79,3.94-4.14,8.58,1.33,12,2.95,1.82,5.81,3.7,9.29,4.63,6.69,1.78,13.6,2.27,20.48,4-.79,2-1.56,4-2.36,6a157.92,157.92,0,0,1-10,20.37c-.92,1.58-.68,2.61,1,3.19,5.77,2,11.47,4.38,17.37,5.95,8.66,2.29,17.62,2.72,26.55,3.05,2.76.11,5.55-.26,8.29,0s2.92-.62,2.23-2.9c-1.79-5.89-1.13-11.94-.08-17.77s1.72-11.84.91-17.62c-.51-3.62-.12-3.28,2.94-3,2.88.22,3.5.95,3.35,3.61-.19,3.43.39,6.89.53,10.3.35,8.59,1.87,17,3.17,25.42.35,2.25,1,4,4.09,3.64a61,61,0,0,0,8.68-1.3A207.58,207.58,0,0,1,744.36,853c5.17-.55,7.32-3.81,5.85-8.63-2.46-8-4-16.33-7.71-23.94-1.23-2.51-1.57-4.63,2.44-4,.87.13,1.3-.56,1.92-.93a55,55,0,0,1,7.55-4.23q11.73-4.69,22.94-10.51C785.56,796.47,789.14,789,785.9,781ZM654.47,789.2c-1,.84-1.79-.19-2.67-.48-1.14-.38-.68-.91-.35-1.65.49-1.08.51-2.35,1.55-3.44.39,1.38.74,2.53,1,3.69C654.18,788,655.3,788.49,654.47,789.2Zm81.42-25.89c2.73,4.17,5.14,8.25,8,12,1.31,1.75,1.32,3,.13,4.54a31.78,31.78,0,0,1-8.94,7.66C734.61,779.46,735.55,771.57,735.89,763.31Zm-38.58,52.63a4.44,4.44,0,0,1-5.15-.35c-1.23-.92-.68-2.33-.31-3.63.8-2.83.58-5.8,1-8.7.69-4.31,1.36-5.06,5.87-5.63,3.74-.48,7.31-1.51,11,.7a3.23,3.23,0,0,0,4.16-1.28c.84-1.52,2.32-1.61,3.43-2.44,1.54-1.16,2.6-.43,2.58.94,0,3.12,1.9,3.21,3.94,2.85,4-.71,5.71,1.47,6.68,4.88.66,2.29,1.49,4.53,2.37,7.17-4.26-1.38-5.75,3.29-9.17,3.62l.06,0h-.27l-.34-.06c-3.19-.35-6.52.83-9.61-.78a2,2,0,0,1-.14-.49,3.08,3.08,0,0,0,2.86-3.16c.14-2.52-2.14-2.07-3.37-2.63a3.12,3.12,0,0,0-4.24,1.55c-.94,1.68-1.92,3.34-2.92,5-1.6,2.63-3.93,3.19-6.58,1.91C698,814.82,698,815.46,697.31,815.94Z" transform="translate(-438 -412)"/></svg>