<svg id="f3b04bfb-6c55-47e3-a363-c3866db04bf2" data-name="bob-hair" xmlns="http://www.w3.org/2000/svg" viewBox="0 0 548.25 548.25"><defs><style>.af1d3bfa-ba8f-434c-b9a1-a55606d5f70b{fill:none;}.a52b68f4-a1e4-4e7a-9218-c13a37dec62c{fill:current;}</style></defs><path class="af1d3bfa-ba8f-434c-b9a1-a55606d5f70b" d="M1070.75,913.18q-135.15,0-270.31.07c-2.81,0-3.44-.63-3.44-3.44q.12-270.69,0-541.37c0-2.81.63-3.44,3.44-3.44q270.69.12,541.37,0c2.81,0,3.44.63,3.44,3.44q-.12,270.69,0,541.37c0,2.81-.63,3.44-3.44,3.44Q1206.29,913.12,1070.75,913.18Z" transform="translate(-797 -365)"/><path class="a52b68f4-a1e4-4e7a-9218-c13a37dec62c" d="M1014.34,697.55c-1-6.3-3-12.39-3.59-18.77a28.07,28.07,0,0,0-.31-2.86c3.61-1.21,7-3.06,11.16-3.37-.33,8.37,2.29,16.14,5.23,23.8,1.38,3.59,3.24,6.8,8.12,5,.93-.35,1.49.35,2,1.2a12,12,0,0,1,1.86,6.3c-.21,5.74,1,11.37.92,17.09,0,5,1.34,9.9.76,15-.3,2.74-.86,2.51-3.29,1.74a112.09,112.09,0,0,0-22.3-4.59c-2.36-.25-3.28-.41-2.56-3.23a123.28,123.28,0,0,0,4.13-34.42C1016.43,698.9,1016.78,697.2,1014.34,697.55Z" transform="translate(-797 -365)"/><path class="a52b68f4-a1e4-4e7a-9218-c13a37dec62c" d="M1000.75,796.44c-.74-.53-2.16-1.54-.9-2,5.17-2.08,4.37-7,5.53-10.93a15,15,0,0,1,1-2.66c.47-.92,1.24-.95,2.19-.39s1.18.82.75,2a22.8,22.8,0,0,0-1.6,6.39c-.1,1.79-1.39,4,1.27,5.43,5.94,3.25,5.79,3.32,7.65-3.16.78-2.71,1.87-5.34,2.1-8.17a2.16,2.16,0,0,1,2.21-2.08c5.42,0,10.26-2.37,15.76-3.66-.89,5.28-1.55,10.47-2.73,15.53-.53,2.26.76,4.75-1,6.77a3.25,3.25,0,0,1-2.74,1.64c-9.45.56-18.77,0-27.79-3.2A3.48,3.48,0,0,1,1000.75,796.44Z" transform="translate(-797 -365)"/><path class="a52b68f4-a1e4-4e7a-9218-c13a37dec62c" d="M1094.33,803.19a157.89,157.89,0,0,1-19.57.65c-.86,0-2.2.47-2.08-1.23.09-1.39,1.24-1.09,2-.94,9,1.85,17.75-.06,26.5-1.66a106.79,106.79,0,0,0,10.4-3c1.51.84.1,1.58-.09,2.36-4.53,2.91-9.86,2.54-14.84,3.61Z" transform="translate(-797 -365)"/><path class="a52b68f4-a1e4-4e7a-9218-c13a37dec62c" d="M1000.62,798.6c5.76,1.79,11.72,2.6,17.62,3.76,4.32.86,8.77-.62,13.11.78-3.78.16-7.3,1.52-11.23,1.16-6.81-.63-13.28-3-20.12-3.36-.92-.08-1.67-.36-1.41-1.5S999.89,798.76,1000.62,798.6Z" transform="translate(-797 -365)"/><path class="a52b68f4-a1e4-4e7a-9218-c13a37dec62c" d="M1048,747.62v0h0Z" transform="translate(-797 -365)"/><path class="a52b68f4-a1e4-4e7a-9218-c13a37dec62c" d="M1047.23,754.94c-.15-1.88.48-3.82.76-5.73h0c0-.51,0-1,0-1.54h-1.42c.2,1.43-1.35,2-1.62,3.21a74.23,74.23,0,0,1-4.25,14.62c-1,2.27-2.74,4.79-1.61,7.67l1.41-.13C1045,767.88,1047.8,762.08,1047.23,754.94Z" transform="translate(-797 -365)"/><path class="a52b68f4-a1e4-4e7a-9218-c13a37dec62c" d="M1027,671.34h0c-.55-1-1.1-1-1.65,0,1.26,6,2.58,12,3.74,18a22.6,22.6,0,0,1,0,4.43v0c1.59,1.38-.2,4.8,3.1,5.15-1.58-9.22-2.78-18.52-5.2-27.58Z" transform="translate(-797 -365)"/><path class="a52b68f4-a1e4-4e7a-9218-c13a37dec62c" d="M1069.7,672.08h0c-.16-2.84-.16-2.84-1.65-2.24-.09,3.54.34,7.06-.33,10.63a54.44,54.44,0,0,1-6.41,17.8c2.07,1.64,2.19-.82,3.15-1.5A52.43,52.43,0,0,0,1069.7,672.08Z" transform="translate(-797 -365)"/><path class="a52b68f4-a1e4-4e7a-9218-c13a37dec62c" d="M1119.05,699.26c0,4.68-2.14,6.9-5.84,6.5-.69-.07-1.57.17-1.63-1,0-.66.12-1.21.91-1.33a1.17,1.17,0,0,0,.34-.16c1.79-.87,4.06-2.15,3.5-4.06s-3.2-1.81-5.21-1.73c-2.23.08-2.27-.95-1.16-2.45.36-.5,1-.84,1.24-1.37.41-1.07,1.84-2.23.8-3.28-.83-.84-2-.59-3,.73a2.19,2.19,0,0,1-3.25-.18c-.74-1.13.46-2.07,1.32-2.74a6.47,6.47,0,0,1,6.31-.93c1.73.63,2,2.61,1.94,4.41-.07,1.18,0,2.32,1.32,2.77C1119.21,695.4,1119.2,697.47,1119.05,699.26Z" transform="translate(-797 -365)"/><path class="a52b68f4-a1e4-4e7a-9218-c13a37dec62c" d="M1107.84,706.33c.38,1.28-.71,2-1.72,2.11-1.95.19-3.36,2.37-5.4,1.55-.78-.32-.5-1.58-.21-2.38,1.3-3.57.61-5.35-3.08-7.09a1.31,1.31,0,0,1-.8-1.75c.75-2.17-.18-5.66,2.46-6.24,2.47-.54,1.67,2.93,2.7,4.43a31.44,31.44,0,0,1,2.26,4.92c.54,1.15.72,2.63,2.62,2.43C1108.05,704.16,1107.74,705.32,1107.84,706.33Z" transform="translate(-797 -365)"/><path class="a52b68f4-a1e4-4e7a-9218-c13a37dec62c" d="M1111.51,791.82c-.9-.39-.64-1.24-.7-1.94-.5-6.33-3-12.14-4.91-18.06-.78-2.4-1.56-5.65-5.46-5.55-1.21,0-.74-1.31-.78-2.11,0-6.41-2.43-12-6-17.11-1.18-.26-1.56.39-1.62,1.41,1.2,5.39,3.31,10.48,5.29,15.61,1.29,1.3.92,2.77-.74,2.21-4.12-1.41-7,0-10.44,2.15-3.08,1.88-7.29,1.82-11.17,1.81-3.16,0-3.69-1.2-2.69-3.81.25-.64.54-1.27.9-2.13-4.52-.52-6,3.67-9.06,5.18-2.2,1.1.09,2.8.33,4.18,1.4,8.08,3,16.13,4.52,24.19a2.34,2.34,0,0,0,1.44,1.59c4,2.79,8.36,2,12.58,1s8.76-1.82,13.2-2.53c5.11-.81,10.48-.58,15.28-3C1111.78,793.88,1114,792.9,1111.51,791.82Zm-12.28-1.48c-.93-.33-1.44,1.69-2.72.06-3.08-3.93-4.83-8.55-7.07-12.9-.92-1.79.76-2.82,2.17-3.34,1.13-.42,2.26-.91,2.87,1.34a63,63,0,0,0,5.13,12.93,7.35,7.35,0,0,0,.63.86C1100.45,790.22,1099.84,790.55,1099.23,790.34Z" transform="translate(-797 -365)"/><path class="a52b68f4-a1e4-4e7a-9218-c13a37dec62c" d="M1090.11,699.58c-.52-1.71-.5-3,1.86-2.78q2.73-9.36,5.45-18.73c-.28-.22-.53-.6-.84-.65-6.91-1.14-13.85-2.08-20.71-3.44-2.11-.42-1.59.68-1.76,1.68-1.19,6.77-2.29,13.55-4.46,20.1a6.46,6.46,0,0,1-5.16,4.67c-2.12.39-4.38.08-6.74.08-.33,10.73-.49,21.69.85,32.53.57,4.54-.15,9.15,1.19,13.64.45,1.49,1.23,2.33,2.36,2.38,4,.18,8.22,2.13,11.86-1.3.51-.48,1.37-.57,2-1,1.69-1.07,2.81-.61,3.45,1.21,1.33,3.76,4.5,2.45,6,1.18,5-4.22,9.41-8.68,9-16.35C1093.94,721.59,1093.45,710.42,1090.11,699.58Zm-4.12,25c-.46,1.24-1.73.51-2.63.69-3.83.76-3.33.83-2.71-3,.55-3.44-1.11-7-.17-11.55-2.81,3.24-3.38,6.5-4.76,9.32-.43.89-.44,1.94-1.59,2.21-1.36.31-2.08-.73-2.7-1.61-1.43-2.06-2.73-4.21-4.09-6.33l-.71.25c0,2,0,4,0,5.94s-.83,4.34,2.68,4.29c.94,0,1.47,1.52,1.44,2.37-.06,1.21-1.32,1.14-2.31,1.13-1.24,0-2.49,0-3.73,0s-2.17-.89-1.74-1.9c2.44-5.63-.37-11.41.67-17,.21-1.14-.78-2.72.67-3.34s1.78,1.27,2.68,1.82c3.4,2.11,3.54,6.22,6.28,9,1.26-2.89,2.52-5.88,3.91-8.8.38-.81.45-1.9,1.64-2.25s2.3-1.92,3.66-1.25.7,2.28.56,3.37c-.6,4.64,1.64,9.08.84,13.72-.07.41.19,1.21.44,1.28C1085.31,723.07,1086.51,723.13,1086,724.56Z" transform="translate(-797 -365)"/></svg>