<svg id="fe4e2fca-c501-4219-9f77-ed867de7fc10" data-name="레이어 1" xmlns="http://www.w3.org/2000/svg" viewBox="0 0 548.25 548.25"><defs><style>.b4756862-994f-4ed1-8a64-de16b3a1b476{fill:none;}</style></defs><path class="b4756862-994f-4ed1-8a64-de16b3a1b476" d="M477.07,657.12q0-135.33-.07-270.68c0-2.81.63-3.44,3.44-3.44q270.69.12,541.37,0c2.81,0,3.44.63,3.44,3.44q-.12,270.69,0,541.37c0,2.81-.63,3.44-3.44,3.44q-270.69-.12-541.37,0c-2.81,0-3.44-.63-3.44-3.44Q477.14,792.47,477.07,657.12Z" transform="translate(-477 -383)"/><path d="M745.41,751c-2.82-8.53-3.92-17.62-8.21-25.65-1-1.91-.42-3.2.53-4.66,2.59-4,1.82-7.74-2.24-11-3.08-2.48-6.43-2.13-9.58,1.14-1.61,1.67-3,3.57-4.58,5.28-.6.65-.84,1.76-.48,2,2.2,1.34,1.73,4.17,3.31,5.69,2.68,2.6,2.14,5.47,1.31,8.56-2.08,7.77-4.14,15.54-6,23.36-.48,2-1.1,5.18.29,6,3.38,1.9,6.61,4.49,10,4.94,1.95-.24,3.13.15,4.25-.86,2.73-2.44,5.55-4.8,8.47-7C745.13,756.69,746.42,754,745.41,751Z" transform="translate(-477 -383)"/></svg>