<svg id="b5bf2fb0-8852-4789-a261-89f5c5a95516" data-name="레이어 1" xmlns="http://www.w3.org/2000/svg" viewBox="0 0 548.25 548.25"><defs><style>.b0337807-9783-4df7-b50f-e6e126306f59{fill:none;}</style></defs><path class="b0337807-9783-4df7-b50f-e6e126306f59" d="M975.13,880.18q-135.35,0-270.69.07c-2.81,0-3.44-.63-3.44-3.44q.12-270.69,0-541.37c0-2.81.63-3.44,3.44-3.44q270.69.12,541.37,0c2.81,0,3.44.63,3.44,3.44q-.12,270.69,0,541.37c0,2.81-.63,3.44-3.44,3.44Q1110.46,880.12,975.13,880.18Z" transform="translate(-701 -332)"/><path d="M1038.05,685.87c-1.79-6-5.83-10.75-9.24-15.83-.82-1.21-1.64-1.8-.27-3.33,1.14-1.27,1.13-3.81.06-4.77a2.93,2.93,0,0,0-2.56-.63c-.27.87-1.18,1.76-3,2.69-2.17,0-5.34.67-6.29,2.51s-2.54,3.22-5.47,2c-3.08-1.34-6,1.53-5.49,4.8.13.88.26,1.62-1.1,1.8a33.77,33.77,0,0,0-4.65,1.25c-.36-2.74,1.29-4.66,3.22-6.85-3.51-.85-6.68-.35-9.8-.41-1.69,0-2.7-.09-2.63-2.33.16-5.51.41-11.05-1.39-16.42-.18-.52-.82-1.94-1.26-3.18l-2.86,0c-.07,1.59-.67,3.64-.44,4.71,1,4.88.63,9.84.81,14.77.1,2.76-1.4,3.23-3,1.85-2.84-2.41-4.87-1.71-7.26.56-1.37,1.3-3.38,2.7-5.12.61-2.88-3.45-5.44-2-8.18,0-2,1.51-5.46,1.54-6.09.34-2.45-4.62-4.94-1.94-7.12-.42a24.38,24.38,0,0,1-5.25,2.32c-.91.36-2.5.46-2.15-1.42.67-3.5-1.67-3.16-3.76-3a19.57,19.57,0,0,0-7.33,1.77c-1.75.91-2,.45-2.52-1.44-1.18-4.59,0-9.32-1.27-13.9a31,31,0,0,1-.79-6.21l-2.73,0c-.17,2.05-.36,4-.31,4.51.42,4.74,1,9.46,1.56,14.85.72,2.62-1.06,2.71-3.31,1.83s-4.58-.63-6.9-.74c-1.08,0-2.59.89-2.45,1,3.11,3.07-3.51,4.56-1.14,7.35a1.57,1.57,0,0,0,.91.58c1.89.08,3.83.23,2.74,2.89-.76,1.87-1.54,2.74-4.49,2.93-6.14.41-9.85-4.55-15.26-5-.29,0-2.41-.12-4.57-.28l-.4.21c-1.19.56-3-.32-3.43,1.89s.89,3.16,2.06,4.47c.36.4,1.36-.06,1.2,1.56-.55,5.6-1.45,11.18-2,16.76-.81,7.73-1.22,15.21.3,22.85a9.5,9.5,0,0,0,7.39,7.77,77.42,77.42,0,0,0,17,2.27c4.27,0,3.86,2.6,3.2,4.66-2.53,7.91-4.62,15.93-7,23.86-1.25,4.2.91,4.49,2.87,5a40,40,0,0,0,11.49,1.89,60.74,60.74,0,0,1,10.35.45c4.83.73,9.86.55,14.69,2.25,3,1.06,6.57.42,9.82-1.6a15,15,0,0,1,10.18-1.66c7.08,1,14.22,1.1,21.06-1.41,4.71-1.74,9.06-4.49,14.54-2.71A9.53,9.53,0,0,0,1009,766c1.86-.64,2.48-.93,1.44-3.12-4.21-8.91-8.71-17.78-9.06-28-.08-2.23-.47-4.16,2.69-5.28,8.92-3.16,17.59-7,26.48-10.28a10.09,10.09,0,0,0,4.48-3.63c2-2.52,3.51-5.46,5.36-8.13a9.17,9.17,0,0,0,1.44-5.17C1042.09,696.51,1039.65,691.29,1038.05,685.87Zm-42.33,44c-1.14,2.11-4.68,3-7.24,4.23-2.4,1.16-5.05.9-7.61.75-1.85-.1-3.58-.58-2.79-3.21.17-.59.41-1.74-.56-1.9a4.46,4.46,0,0,0-3.8.81c-3.72,2.94-7.63,5.62-12.8,5.11-2.07-.2-3.79-1.6-5.94-1.56a6.59,6.59,0,0,0-3.3.91c-.36-4.48,2.32-8.51.06-12.72-.71-1.33,1-2.55,1.59-2.67,5.3-1,10.65-1.7,16-2.42.34-.05.83.46,1.15.8,2.52,2.69,3.81,2.66,6.91-.26h0c1.17.16,1.68-.86,2.5-1.36,1-.63,2.31-1.27,2,1-.22,1.55.52,1.9,1.92,1.82a15.87,15.87,0,0,1,5.2.08c1.23.36,2.6-2.37,3.57.34C993.78,723.07,997.73,726.14,995.72,729.89Zm-18.29-12.17Zm26.11-32.94c3,3.8,4.42,8.53,7.34,12.45,1.93,2.59,1.8,5.46-1.28,7.8-3.42,2.59-6.56,5.56-10.3,8.78-.81-12.32,1.16-24-1.84-36C1000.35,679.89,1001.76,682.52,1003.54,684.78Zm-89.66,24.39c.75-1,.42-2.13.79-3.34,1.59.86,1.55,2.39,2.28,3.44.53.77.95,1.61.12,2.24s-1.53-.22-2.32-.44C913.47,710.71,913.44,709.77,913.88,709.17Z" transform="translate(-701 -332)"/></svg>